%TF.GenerationSoftware,KiCad,Pcbnew,10.0.5*%
%TF.CreationDate,2026-08-31T23:07:14+05:30*%
%TF.ProjectId,Spotube,53706f74-7562-4652-9e6b-696361645f70,rev?*%
%TF.SameCoordinates,Original*%
%TF.FileFunction,Soldermask,Bot*%
%TF.FilePolarity,Negative*%
%FSLAX46Y46*%
G04 Gerber Fmt 4.6, Leading zero omitted, Abs format (unit mm)*
G04 Created by KiCad (PCBNEW 10.0.5) date 2026-08-31 23:07:14*
%MOMM*%
%LPD*%
G01*
G04 APERTURE LIST*
G04 Aperture macros list*
%AMRoundRect*
0 Rectangle with rounded corners*
0 $1 Rounding radius*
0 $2 $3 $4 $5 $6 $7 $8 $9 X,Y pos of 4 corners*
0 Add a 4 corners polygon primitive as box body*
4,1,4,$2,$3,$4,$5,$6,$7,$8,$9,$2,$3,0*
0 Add four circle primitives for the rounded corners*
1,1,$1+$1,$2,$3*
1,1,$1+$1,$4,$5*
1,1,$1+$1,$6,$7*
1,1,$1+$1,$8,$9*
0 Add four rect primitives between the rounded corners*
20,1,$1+$1,$2,$3,$4,$5,0*
20,1,$1+$1,$4,$5,$6,$7,0*
20,1,$1+$1,$6,$7,$8,$9,0*
20,1,$1+$1,$8,$9,$2,$3,0*%
G04 Aperture macros list end*
%ADD10C,1.700000*%
%ADD11C,4.000000*%
%ADD12C,2.200000*%
%ADD13R,1.700000X1.700000*%
%ADD14R,2.000000X2.000000*%
%ADD15C,2.000000*%
%ADD16R,3.200000X2.000000*%
%ADD17C,1.712000*%
%ADD18RoundRect,0.102000X0.754000X0.754000X-0.754000X0.754000X-0.754000X-0.754000X0.754000X-0.754000X0*%
G04 APERTURE END LIST*
D10*
%TO.C,SW3*%
X122270000Y-125550000D03*
D11*
X127350000Y-125550000D03*
D10*
X132430000Y-125550000D03*
D12*
X129890000Y-120470000D03*
X123540000Y-123010000D03*
%TD*%
D10*
%TO.C,SW1*%
X160410000Y-125520000D03*
D11*
X165490000Y-125520000D03*
D10*
X170570000Y-125520000D03*
D12*
X168030000Y-120440000D03*
X161680000Y-122980000D03*
%TD*%
D13*
%TO.C,J2*%
X120800000Y-83170000D03*
D10*
X120800000Y-85710000D03*
X120800000Y-88250000D03*
X120800000Y-90790000D03*
X120800000Y-93330000D03*
X120800000Y-95870000D03*
X120800000Y-98410000D03*
X120800000Y-100950000D03*
%TD*%
D14*
%TO.C,SW4*%
X139040000Y-68030000D03*
D15*
X139040000Y-73030000D03*
X139040000Y-70530000D03*
D16*
X146540000Y-64930000D03*
X146540000Y-76130000D03*
D15*
X153540000Y-73030000D03*
X153540000Y-68030000D03*
%TD*%
D10*
%TO.C,SW2*%
X141370000Y-125550000D03*
D11*
X146450000Y-125550000D03*
D10*
X151530000Y-125550000D03*
D12*
X148990000Y-120470000D03*
X142640000Y-123010000D03*
%TD*%
D17*
%TO.C,U1*%
X172300000Y-89990000D03*
X172300000Y-92530000D03*
X172300000Y-95070000D03*
X157060000Y-89990000D03*
X172300000Y-97610000D03*
X172300000Y-100150000D03*
D18*
X157060000Y-84910000D03*
D17*
X172300000Y-102690000D03*
X172300000Y-105230000D03*
X157060000Y-105230000D03*
X157060000Y-102690000D03*
X157060000Y-100150000D03*
X157060000Y-97610000D03*
X157060000Y-95070000D03*
X157060000Y-92570000D03*
X157060000Y-87450000D03*
X172300000Y-87450000D03*
X172300000Y-84910000D03*
%TD*%
M02*
