M48
; DRILL file KiCad 10.0.5 date 2026-08-31T23:07:16
; FORMAT={-:-/ absolute / metric / decimal}
; #@! TF.CreationDate,2026-08-31T23:07:16+05:30
; #@! TF.GenerationSoftware,Kicad,Pcbnew,10.0.5
; #@! TF.FileFunction,Plated,1,2,PTH
FMAT,2
METRIC
; #@! TA.AperFunction,Plated,PTH,ViaDrill
T1C0.300
; #@! TA.AperFunction,Plated,PTH,ComponentDrill
T2C1.000
; #@! TA.AperFunction,Plated,PTH,ComponentDrill
T3C1.500
%
G90
G05
T1
X143.18Y-69.77
X146.74Y-73.33
T2
X120.8Y-83.17
X120.8Y-85.71
X120.8Y-88.25
X120.8Y-90.79
X120.8Y-93.33
X120.8Y-95.87
X120.8Y-98.41
X120.8Y-100.95
X139.04Y-68.03
X139.04Y-70.53
X139.04Y-73.03
X153.54Y-68.03
X153.54Y-73.03
X157.06Y-84.91
X157.06Y-87.45
X157.06Y-89.99
X157.06Y-92.57
X157.06Y-95.07
X157.06Y-97.61
X157.06Y-100.15
X157.06Y-102.69
X157.06Y-105.23
X172.3Y-84.91
X172.3Y-87.45
X172.3Y-89.99
X172.3Y-92.53
X172.3Y-95.07
X172.3Y-97.61
X172.3Y-100.15
X172.3Y-102.69
X172.3Y-105.23
T3
X123.54Y-123.01
X129.89Y-120.47
X142.64Y-123.01
X148.99Y-120.47
X161.68Y-122.98
X168.03Y-120.44
T3
G00X145.89Y-64.93
M15
G01X147.19Y-64.93
M16
G05
G00X145.89Y-76.13
M15
G01X147.19Y-76.13
M16
G05
M30
