%TF.GenerationSoftware,KiCad,Pcbnew,10.0.5*%
%TF.CreationDate,2026-08-31T23:07:14+05:30*%
%TF.ProjectId,Spotube,53706f74-7562-4652-9e6b-696361645f70,rev?*%
%TF.SameCoordinates,Original*%
%TF.FileFunction,Copper,L1,Top*%
%TF.FilePolarity,Positive*%
%FSLAX46Y46*%
G04 Gerber Fmt 4.6, Leading zero omitted, Abs format (unit mm)*
G04 Created by KiCad (PCBNEW 10.0.5) date 2026-08-31 23:07:14*
%MOMM*%
%LPD*%
G01*
G04 APERTURE LIST*
%TA.AperFunction,ComponentPad*%
%ADD10C,2.200000*%
%TD*%
%TA.AperFunction,ComponentPad*%
%ADD11R,1.700000X1.700000*%
%TD*%
%TA.AperFunction,ComponentPad*%
%ADD12C,1.700000*%
%TD*%
%TA.AperFunction,ComponentPad*%
%ADD13R,2.000000X2.000000*%
%TD*%
%TA.AperFunction,ComponentPad*%
%ADD14C,2.000000*%
%TD*%
%TA.AperFunction,ComponentPad*%
%ADD15R,3.200000X2.000000*%
%TD*%
%TA.AperFunction,ComponentPad*%
%ADD16C,1.508000*%
%TD*%
%TA.AperFunction,ComponentPad*%
%ADD17R,1.508000X1.508000*%
%TD*%
%TA.AperFunction,ViaPad*%
%ADD18C,0.600000*%
%TD*%
%TA.AperFunction,Conductor*%
%ADD19C,0.200000*%
%TD*%
G04 APERTURE END LIST*
D10*
%TO.P,SW3,1,1_1*%
%TO.N,/GPIO_10*%
X129890000Y-120470000D03*
%TO.P,SW3,2,2_2*%
%TO.N,GND*%
X123540000Y-123010000D03*
%TD*%
%TO.P,SW1,1,1_1*%
%TO.N,/GPIO_8*%
X168030000Y-120440000D03*
%TO.P,SW1,2,2_2*%
%TO.N,GND*%
X161680000Y-122980000D03*
%TD*%
D11*
%TO.P,J2,1,Pin_1_1*%
%TO.N,+3V3*%
X120800000Y-83170000D03*
D12*
%TO.P,J2,2,Pin_2_2*%
%TO.N,GND*%
X120800000Y-85710000D03*
%TO.P,J2,3,Pin_3_3*%
%TO.N,/DIN*%
X120800000Y-88250000D03*
%TO.P,J2,4,Pin_4_4*%
%TO.N,/CLK*%
X120800000Y-90790000D03*
%TO.P,J2,5,Pin_5_5*%
%TO.N,/CS*%
X120800000Y-93330000D03*
%TO.P,J2,6,Pin_6_6*%
%TO.N,/DC*%
X120800000Y-95870000D03*
%TO.P,J2,7,Pin_7_7*%
%TO.N,/RST*%
X120800000Y-98410000D03*
%TO.P,J2,8,Pin_8_8*%
%TO.N,/BL*%
X120800000Y-100950000D03*
%TD*%
D13*
%TO.P,SW4,A,A_A*%
%TO.N,/GPIO_11*%
X139040000Y-68030000D03*
D14*
%TO.P,SW4,B,B_B*%
%TO.N,/GPIO_12*%
X139040000Y-73030000D03*
%TO.P,SW4,C,C_C*%
%TO.N,GND*%
X139040000Y-70530000D03*
D15*
%TO.P,SW4,MP*%
%TO.N,N/C*%
X146540000Y-64930000D03*
X146540000Y-76130000D03*
D14*
%TO.P,SW4,S1*%
X153540000Y-73030000D03*
%TO.P,SW4,S2*%
X153540000Y-68030000D03*
%TD*%
D10*
%TO.P,SW2,1,1_1*%
%TO.N,/GPIO_9*%
X148990000Y-120470000D03*
%TO.P,SW2,2,2_2*%
%TO.N,GND*%
X142640000Y-123010000D03*
%TD*%
D16*
%TO.P,U1,1,5V_1*%
%TO.N,unconnected-(U1-5V-Pad1)*%
X172300000Y-89990000D03*
%TO.P,U1,2,GND_2*%
%TO.N,GND*%
X172300000Y-92530000D03*
%TO.P,U1,3,3V3_3*%
%TO.N,+3V3*%
X172300000Y-95070000D03*
%TO.P,U1,3V3*%
%TO.N,N/C*%
X157060000Y-89990000D03*
%TO.P,U1,4,GPIO_13_4*%
%TO.N,unconnected-(U1-GPIO_13-Pad4)*%
X172300000Y-97610000D03*
%TO.P,U1,5,GPIO_12_5*%
%TO.N,/GPIO_12*%
X172300000Y-100150000D03*
D17*
%TO.P,U1,5V*%
%TO.N,N/C*%
X157060000Y-84910000D03*
D16*
%TO.P,U1,6,GPIO_11_6*%
%TO.N,/GPIO_11*%
X172300000Y-102690000D03*
%TO.P,U1,7,GPIO_10_7*%
%TO.N,/GPIO_10*%
X172300000Y-105230000D03*
%TO.P,U1,8,GPIO_9_8*%
%TO.N,/GPIO_9*%
X157060000Y-105230000D03*
%TO.P,U1,9,GPIO_8_9*%
%TO.N,/GPIO_8*%
X157060000Y-102690000D03*
%TO.P,U1,10,GPIO_7_10*%
%TO.N,/CS*%
X157060000Y-100150000D03*
%TO.P,U1,11,GPIO_6_11*%
%TO.N,/DIN*%
X157060000Y-97610000D03*
%TO.P,U1,12,GPIO_5_12*%
%TO.N,/DC*%
X157060000Y-95070000D03*
%TO.P,U1,13,GPIO_4_13*%
%TO.N,/CLK*%
X157060000Y-92570000D03*
%TO.P,U1,GND*%
%TO.N,N/C*%
X157060000Y-87450000D03*
%TO.P,U1,RX*%
X172300000Y-87450000D03*
%TO.P,U1,TX*%
X172300000Y-84910000D03*
%TD*%
D18*
%TO.N,/GPIO_11*%
X146740000Y-73330000D03*
X143180000Y-69770000D03*
%TD*%
%TO.N,/GPIO_10*%
D19*
X158550582Y-105230000D02*
X143310582Y-120470000D01*
X172300000Y-105230000D02*
X158550582Y-105230000D01*
X143310582Y-120470000D02*
X129890000Y-120470000D01*
%TO.N,/GPIO_8*%
X157060000Y-102690000D02*
X158146000Y-103776000D01*
X172902268Y-103776000D02*
X173754000Y-104627733D01*
X158146000Y-103776000D02*
X172902268Y-103776000D01*
X173754000Y-104627733D02*
X173754000Y-114716000D01*
X173754000Y-114716000D02*
X168030000Y-120440000D01*
%TO.N,+3V3*%
X140308529Y-66050000D02*
X156366000Y-82107471D01*
X137680000Y-81520000D02*
X137680000Y-66790000D01*
X136030000Y-83170000D02*
X137680000Y-81520000D01*
X158427471Y-82107471D02*
X160176000Y-83856000D01*
X156366000Y-82107471D02*
X158427471Y-82107471D01*
X120800000Y-83170000D02*
X136030000Y-83170000D01*
X137680000Y-66790000D02*
X138420000Y-66050000D01*
X138420000Y-66050000D02*
X140308529Y-66050000D01*
X160176000Y-83856000D02*
X161086000Y-83856000D01*
X161086000Y-83856000D02*
X172300000Y-95070000D01*
%TO.N,/GPIO_12*%
X172300000Y-100150000D02*
X158510000Y-86360000D01*
X139040000Y-76400000D02*
X139040000Y-73030000D01*
X158510000Y-86360000D02*
X149000000Y-86360000D01*
X149000000Y-86360000D02*
X139040000Y-76400000D01*
%TO.N,/GPIO_11*%
X146740000Y-73330000D02*
X143180000Y-69770000D01*
%TO.N,/GPIO_9*%
X158114000Y-104176000D02*
X172736582Y-104176000D01*
X172736582Y-104176000D02*
X173354000Y-104793418D01*
X158550582Y-120470000D02*
X148990000Y-120470000D01*
X173354000Y-104793418D02*
X173354000Y-105666582D01*
X157060000Y-105230000D02*
X158114000Y-104176000D01*
X173354000Y-105666582D02*
X158550582Y-120470000D01*
%TO.N,/CS*%
X157060000Y-100150000D02*
X127620000Y-100150000D01*
X127620000Y-100150000D02*
X120800000Y-93330000D01*
%TO.N,/DIN*%
X157060000Y-97610000D02*
X130160000Y-97610000D01*
X130160000Y-97610000D02*
X120800000Y-88250000D01*
%TO.N,/DC*%
X158114000Y-96124000D02*
X158114000Y-100586582D01*
X158114000Y-100586582D02*
X157496582Y-101204000D01*
X157496582Y-101204000D02*
X126134000Y-101204000D01*
X157060000Y-95070000D02*
X158114000Y-96124000D01*
X126134000Y-101204000D02*
X120800000Y-95870000D01*
%TO.N,/CLK*%
X119650000Y-89640000D02*
X120800000Y-90790000D01*
X119650000Y-87773654D02*
X119650000Y-89640000D01*
X157060000Y-92570000D02*
X151590000Y-87100000D01*
X151590000Y-87100000D02*
X120323654Y-87100000D01*
X120323654Y-87100000D02*
X119650000Y-87773654D01*
%TD*%
M02*
