%TF.GenerationSoftware,KiCad,Pcbnew,10.0.5*%
%TF.CreationDate,2026-08-31T23:07:14+05:30*%
%TF.ProjectId,Spotube,53706f74-7562-4652-9e6b-696361645f70,rev?*%
%TF.SameCoordinates,Original*%
%TF.FileFunction,Copper,L2,Bot*%
%TF.FilePolarity,Positive*%
%FSLAX46Y46*%
G04 Gerber Fmt 4.6, Leading zero omitted, Abs format (unit mm)*
G04 Created by KiCad (PCBNEW 10.0.5) date 2026-08-31 23:07:14*
%MOMM*%
%LPD*%
G01*
G04 APERTURE LIST*
%TA.AperFunction,ComponentPad*%
%ADD10C,2.200000*%
%TD*%
%TA.AperFunction,ComponentPad*%
%ADD11R,1.700000X1.700000*%
%TD*%
%TA.AperFunction,ComponentPad*%
%ADD12C,1.700000*%
%TD*%
%TA.AperFunction,ComponentPad*%
%ADD13R,2.000000X2.000000*%
%TD*%
%TA.AperFunction,ComponentPad*%
%ADD14C,2.000000*%
%TD*%
%TA.AperFunction,ComponentPad*%
%ADD15R,3.200000X2.000000*%
%TD*%
%TA.AperFunction,ComponentPad*%
%ADD16C,1.508000*%
%TD*%
%TA.AperFunction,ComponentPad*%
%ADD17R,1.508000X1.508000*%
%TD*%
%TA.AperFunction,ViaPad*%
%ADD18C,0.600000*%
%TD*%
%TA.AperFunction,Conductor*%
%ADD19C,0.200000*%
%TD*%
G04 APERTURE END LIST*
D10*
%TO.P,SW3,1,1_1*%
%TO.N,/GPIO_10*%
X129890000Y-120470000D03*
%TO.P,SW3,2,2_2*%
%TO.N,GND*%
X123540000Y-123010000D03*
%TD*%
%TO.P,SW1,1,1_1*%
%TO.N,/GPIO_8*%
X168030000Y-120440000D03*
%TO.P,SW1,2,2_2*%
%TO.N,GND*%
X161680000Y-122980000D03*
%TD*%
D11*
%TO.P,J2,1,Pin_1_1*%
%TO.N,+3V3*%
X120800000Y-83170000D03*
D12*
%TO.P,J2,2,Pin_2_2*%
%TO.N,GND*%
X120800000Y-85710000D03*
%TO.P,J2,3,Pin_3_3*%
%TO.N,/DIN*%
X120800000Y-88250000D03*
%TO.P,J2,4,Pin_4_4*%
%TO.N,/CLK*%
X120800000Y-90790000D03*
%TO.P,J2,5,Pin_5_5*%
%TO.N,/CS*%
X120800000Y-93330000D03*
%TO.P,J2,6,Pin_6_6*%
%TO.N,/DC*%
X120800000Y-95870000D03*
%TO.P,J2,7,Pin_7_7*%
%TO.N,/RST*%
X120800000Y-98410000D03*
%TO.P,J2,8,Pin_8_8*%
%TO.N,/BL*%
X120800000Y-100950000D03*
%TD*%
D13*
%TO.P,SW4,A,A_A*%
%TO.N,/GPIO_11*%
X139040000Y-68030000D03*
D14*
%TO.P,SW4,B,B_B*%
%TO.N,/GPIO_12*%
X139040000Y-73030000D03*
%TO.P,SW4,C,C_C*%
%TO.N,GND*%
X139040000Y-70530000D03*
D15*
%TO.P,SW4,MP*%
%TO.N,N/C*%
X146540000Y-64930000D03*
X146540000Y-76130000D03*
D14*
%TO.P,SW4,S1*%
X153540000Y-73030000D03*
%TO.P,SW4,S2*%
X153540000Y-68030000D03*
%TD*%
D10*
%TO.P,SW2,1,1_1*%
%TO.N,/GPIO_9*%
X148990000Y-120470000D03*
%TO.P,SW2,2,2_2*%
%TO.N,GND*%
X142640000Y-123010000D03*
%TD*%
D16*
%TO.P,U1,1,5V_1*%
%TO.N,unconnected-(U1-5V-Pad1)*%
X172300000Y-89990000D03*
%TO.P,U1,2,GND_2*%
%TO.N,GND*%
X172300000Y-92530000D03*
%TO.P,U1,3,3V3_3*%
%TO.N,+3V3*%
X172300000Y-95070000D03*
%TO.P,U1,3V3*%
%TO.N,N/C*%
X157060000Y-89990000D03*
%TO.P,U1,4,GPIO_13_4*%
%TO.N,unconnected-(U1-GPIO_13-Pad4)*%
X172300000Y-97610000D03*
%TO.P,U1,5,GPIO_12_5*%
%TO.N,/GPIO_12*%
X172300000Y-100150000D03*
D17*
%TO.P,U1,5V*%
%TO.N,N/C*%
X157060000Y-84910000D03*
D16*
%TO.P,U1,6,GPIO_11_6*%
%TO.N,/GPIO_11*%
X172300000Y-102690000D03*
%TO.P,U1,7,GPIO_10_7*%
%TO.N,/GPIO_10*%
X172300000Y-105230000D03*
%TO.P,U1,8,GPIO_9_8*%
%TO.N,/GPIO_9*%
X157060000Y-105230000D03*
%TO.P,U1,9,GPIO_8_9*%
%TO.N,/GPIO_8*%
X157060000Y-102690000D03*
%TO.P,U1,10,GPIO_7_10*%
%TO.N,/CS*%
X157060000Y-100150000D03*
%TO.P,U1,11,GPIO_6_11*%
%TO.N,/DIN*%
X157060000Y-97610000D03*
%TO.P,U1,12,GPIO_5_12*%
%TO.N,/DC*%
X157060000Y-95070000D03*
%TO.P,U1,13,GPIO_4_13*%
%TO.N,/CLK*%
X157060000Y-92570000D03*
%TO.P,U1,GND*%
%TO.N,N/C*%
X157060000Y-87450000D03*
%TO.P,U1,RX*%
X172300000Y-87450000D03*
%TO.P,U1,TX*%
X172300000Y-84910000D03*
%TD*%
D18*
%TO.N,/GPIO_11*%
X146740000Y-73330000D03*
X143180000Y-69770000D03*
%TD*%
%TO.N,/GPIO_11*%
D19*
X171246000Y-101636000D02*
X172300000Y-102690000D01*
X147510000Y-73330000D02*
X171246000Y-97066000D01*
X140550000Y-69770000D02*
X139040000Y-68260000D01*
X171246000Y-97066000D02*
X171246000Y-101636000D01*
X139040000Y-68260000D02*
X139040000Y-68030000D01*
X146740000Y-73330000D02*
X147510000Y-73330000D01*
X143180000Y-69770000D02*
X140550000Y-69770000D01*
%TD*%
%TA.AperFunction,Conductor*%
%TO.N,GND*%
G36*
X144710540Y-63270185D02*
G01*
X144756295Y-63322989D01*
X144766239Y-63392147D01*
X144737214Y-63455703D01*
X144702928Y-63483332D01*
X144697666Y-63486205D01*
X144582455Y-63572452D01*
X144582452Y-63572455D01*
X144496206Y-63687664D01*
X144496202Y-63687671D01*
X144445908Y-63822517D01*
X144439501Y-63882116D01*
X144439501Y-63882123D01*
X144439500Y-63882135D01*
X144439500Y-65977870D01*
X144439501Y-65977876D01*
X144445908Y-66037483D01*
X144496202Y-66172328D01*
X144496206Y-66172335D01*
X144582452Y-66287544D01*
X144582455Y-66287547D01*
X144697664Y-66373793D01*
X144697671Y-66373797D01*
X144832517Y-66424091D01*
X144832516Y-66424091D01*
X144839444Y-66424835D01*
X144892127Y-66430500D01*
X148187872Y-66430499D01*
X148247483Y-66424091D01*
X148382331Y-66373796D01*
X148497546Y-66287546D01*
X148583796Y-66172331D01*
X148634091Y-66037483D01*
X148640500Y-65977873D01*
X148640499Y-63882128D01*
X148634091Y-63822517D01*
X148583796Y-63687669D01*
X148583795Y-63687668D01*
X148583793Y-63687664D01*
X148497547Y-63572455D01*
X148497544Y-63572452D01*
X148382333Y-63486205D01*
X148377072Y-63483332D01*
X148327667Y-63433927D01*
X148312815Y-63365654D01*
X148337232Y-63300190D01*
X148393165Y-63258318D01*
X148436499Y-63250500D01*
X155135500Y-63250500D01*
X155202539Y-63270185D01*
X155248294Y-63322989D01*
X155259500Y-63374500D01*
X155259499Y-67719042D01*
X155239814Y-67786081D01*
X155187010Y-67831836D01*
X155117852Y-67841780D01*
X155054296Y-67812755D01*
X155016522Y-67753977D01*
X155013026Y-67738440D01*
X155003553Y-67678631D01*
X154930566Y-67454003D01*
X154823342Y-67243566D01*
X154684517Y-67052490D01*
X154517510Y-66885483D01*
X154326433Y-66746657D01*
X154115996Y-66639433D01*
X153891368Y-66566446D01*
X153658097Y-66529500D01*
X153658092Y-66529500D01*
X153421908Y-66529500D01*
X153421903Y-66529500D01*
X153188631Y-66566446D01*
X152964003Y-66639433D01*
X152753566Y-66746657D01*
X152697119Y-66787669D01*
X152562490Y-66885483D01*
X152562488Y-66885485D01*
X152562487Y-66885485D01*
X152395485Y-67052487D01*
X152395485Y-67052488D01*
X152395483Y-67052490D01*
X152335862Y-67134550D01*
X152256657Y-67243566D01*
X152149433Y-67454003D01*
X152076446Y-67678631D01*
X152039500Y-67911902D01*
X152039500Y-68148097D01*
X152076446Y-68381368D01*
X152149433Y-68605996D01*
X152256657Y-68816433D01*
X152395483Y-69007510D01*
X152562490Y-69174517D01*
X152753567Y-69313343D01*
X152852991Y-69364002D01*
X152964003Y-69420566D01*
X152964005Y-69420566D01*
X152964008Y-69420568D01*
X153084412Y-69459689D01*
X153188631Y-69493553D01*
X153421903Y-69530500D01*
X153421908Y-69530500D01*
X153658097Y-69530500D01*
X153891368Y-69493553D01*
X153945421Y-69475990D01*
X154115992Y-69420568D01*
X154326433Y-69313343D01*
X154517510Y-69174517D01*
X154684517Y-69007510D01*
X154823343Y-68816433D01*
X154930568Y-68605992D01*
X155003553Y-68381368D01*
X155013025Y-68321557D01*
X155042953Y-68258426D01*
X155102264Y-68221495D01*
X155172127Y-68222491D01*
X155230360Y-68261101D01*
X155258475Y-68325064D01*
X155259498Y-68340958D01*
X155259497Y-72719035D01*
X155239812Y-72786074D01*
X155187008Y-72831829D01*
X155117850Y-72841773D01*
X155054294Y-72812748D01*
X155016520Y-72753970D01*
X155013027Y-72738451D01*
X155003553Y-72678632D01*
X154930568Y-72454008D01*
X154930566Y-72454005D01*
X154930566Y-72454003D01*
X154823342Y-72243566D01*
X154684517Y-72052490D01*
X154517510Y-71885483D01*
X154326433Y-71746657D01*
X154115996Y-71639433D01*
X153891368Y-71566446D01*
X153658097Y-71529500D01*
X153658092Y-71529500D01*
X153421908Y-71529500D01*
X153421903Y-71529500D01*
X153188631Y-71566446D01*
X152964003Y-71639433D01*
X152753566Y-71746657D01*
X152644550Y-71825862D01*
X152562490Y-71885483D01*
X152562488Y-71885485D01*
X152562487Y-71885485D01*
X152395485Y-72052487D01*
X152395485Y-72052488D01*
X152395483Y-72052490D01*
X152335862Y-72134550D01*
X152256657Y-72243566D01*
X152149433Y-72454003D01*
X152076446Y-72678631D01*
X152039500Y-72911902D01*
X152039500Y-73148097D01*
X152076446Y-73381368D01*
X152149433Y-73605996D01*
X152202008Y-73709179D01*
X152256657Y-73816433D01*
X152395483Y-74007510D01*
X152562490Y-74174517D01*
X152753567Y-74313343D01*
X152852991Y-74364002D01*
X152964003Y-74420566D01*
X152964005Y-74420566D01*
X152964008Y-74420568D01*
X153084412Y-74459689D01*
X153188631Y-74493553D01*
X153421903Y-74530500D01*
X153421908Y-74530500D01*
X153658097Y-74530500D01*
X153891368Y-74493553D01*
X153935720Y-74479142D01*
X154115992Y-74420568D01*
X154326433Y-74313343D01*
X154517510Y-74174517D01*
X154684517Y-74007510D01*
X154823343Y-73816433D01*
X154930568Y-73605992D01*
X155003553Y-73381368D01*
X155013024Y-73321563D01*
X155042952Y-73258433D01*
X155102263Y-73221501D01*
X155172126Y-73222498D01*
X155230359Y-73261108D01*
X155258474Y-73325071D01*
X155259497Y-73340965D01*
X155259497Y-76815890D01*
X155293605Y-76943186D01*
X155326551Y-77000249D01*
X155359497Y-77057313D01*
X155452683Y-77150499D01*
X155566811Y-77216391D01*
X155694105Y-77250499D01*
X174885069Y-77250499D01*
X174952108Y-77270184D01*
X174997863Y-77322988D01*
X175009069Y-77374584D01*
X174975232Y-126772994D01*
X174969928Y-134515585D01*
X174950197Y-134582611D01*
X174897362Y-134628330D01*
X174845928Y-134639500D01*
X118094928Y-134639500D01*
X118027889Y-134619815D01*
X117982134Y-134567011D01*
X117970928Y-134515415D01*
X117977129Y-125463389D01*
X121169500Y-125463389D01*
X121169500Y-125636611D01*
X121196598Y-125807701D01*
X121250127Y-125972445D01*
X121328768Y-126126788D01*
X121430586Y-126266928D01*
X121553072Y-126389414D01*
X121693212Y-126491232D01*
X121847555Y-126569873D01*
X122012299Y-126623402D01*
X122183389Y-126650500D01*
X122183390Y-126650500D01*
X122356610Y-126650500D01*
X122356611Y-126650500D01*
X122527701Y-126623402D01*
X122692445Y-126569873D01*
X122846788Y-126491232D01*
X122986928Y-126389414D01*
X123109414Y-126266928D01*
X123211232Y-126126788D01*
X123289873Y-125972445D01*
X123343402Y-125807701D01*
X123370500Y-125636611D01*
X123370500Y-125463389D01*
X123360854Y-125402486D01*
X125099500Y-125402486D01*
X125099500Y-125697513D01*
X125131571Y-125941113D01*
X125138007Y-125989993D01*
X125212212Y-126266930D01*
X125214361Y-126274951D01*
X125214364Y-126274961D01*
X125327254Y-126547500D01*
X125327258Y-126547510D01*
X125474761Y-126802993D01*
X125654352Y-127037040D01*
X125654358Y-127037047D01*
X125862952Y-127245641D01*
X125862959Y-127245647D01*
X126097006Y-127425238D01*
X126352489Y-127572741D01*
X126352490Y-127572741D01*
X126352493Y-127572743D01*
X126625048Y-127685639D01*
X126910007Y-127761993D01*
X127202494Y-127800500D01*
X127202501Y-127800500D01*
X127497499Y-127800500D01*
X127497506Y-127800500D01*
X127789993Y-127761993D01*
X128074952Y-127685639D01*
X128347507Y-127572743D01*
X128602994Y-127425238D01*
X128837042Y-127245646D01*
X129045646Y-127037042D01*
X129225238Y-126802994D01*
X129372743Y-126547507D01*
X129485639Y-126274952D01*
X129561993Y-125989993D01*
X129600500Y-125697506D01*
X129600500Y-125463389D01*
X131329500Y-125463389D01*
X131329500Y-125636611D01*
X131356598Y-125807701D01*
X131410127Y-125972445D01*
X131488768Y-126126788D01*
X131590586Y-126266928D01*
X131713072Y-126389414D01*
X131853212Y-126491232D01*
X132007555Y-126569873D01*
X132172299Y-126623402D01*
X132343389Y-126650500D01*
X132343390Y-126650500D01*
X132516610Y-126650500D01*
X132516611Y-126650500D01*
X132687701Y-126623402D01*
X132852445Y-126569873D01*
X133006788Y-126491232D01*
X133146928Y-126389414D01*
X133269414Y-126266928D01*
X133371232Y-126126788D01*
X133449873Y-125972445D01*
X133503402Y-125807701D01*
X133530500Y-125636611D01*
X133530500Y-125463389D01*
X140269500Y-125463389D01*
X140269500Y-125636611D01*
X140296598Y-125807701D01*
X140350127Y-125972445D01*
X140428768Y-126126788D01*
X140530586Y-126266928D01*
X140653072Y-126389414D01*
X140793212Y-126491232D01*
X140947555Y-126569873D01*
X141112299Y-126623402D01*
X141283389Y-126650500D01*
X141283390Y-126650500D01*
X141456610Y-126650500D01*
X141456611Y-126650500D01*
X141627701Y-126623402D01*
X141792445Y-126569873D01*
X141946788Y-126491232D01*
X142086928Y-126389414D01*
X142209414Y-126266928D01*
X142311232Y-126126788D01*
X142389873Y-125972445D01*
X142443402Y-125807701D01*
X142470500Y-125636611D01*
X142470500Y-125463389D01*
X142460854Y-125402486D01*
X144199500Y-125402486D01*
X144199500Y-125697513D01*
X144231571Y-125941113D01*
X144238007Y-125989993D01*
X144312212Y-126266930D01*
X144314361Y-126274951D01*
X144314364Y-126274961D01*
X144427254Y-126547500D01*
X144427258Y-126547510D01*
X144574761Y-126802993D01*
X144754352Y-127037040D01*
X144754358Y-127037047D01*
X144962952Y-127245641D01*
X144962959Y-127245647D01*
X145197006Y-127425238D01*
X145452489Y-127572741D01*
X145452490Y-127572741D01*
X145452493Y-127572743D01*
X145725048Y-127685639D01*
X146010007Y-127761993D01*
X146302494Y-127800500D01*
X146302501Y-127800500D01*
X146597499Y-127800500D01*
X146597506Y-127800500D01*
X146889993Y-127761993D01*
X147174952Y-127685639D01*
X147447507Y-127572743D01*
X147702994Y-127425238D01*
X147937042Y-127245646D01*
X148145646Y-127037042D01*
X148325238Y-126802994D01*
X148472743Y-126547507D01*
X148585639Y-126274952D01*
X148661993Y-125989993D01*
X148700500Y-125697506D01*
X148700500Y-125463389D01*
X150429500Y-125463389D01*
X150429500Y-125636611D01*
X150456598Y-125807701D01*
X150510127Y-125972445D01*
X150588768Y-126126788D01*
X150690586Y-126266928D01*
X150813072Y-126389414D01*
X150953212Y-126491232D01*
X151107555Y-126569873D01*
X151272299Y-126623402D01*
X151443389Y-126650500D01*
X151443390Y-126650500D01*
X151616610Y-126650500D01*
X151616611Y-126650500D01*
X151787701Y-126623402D01*
X151952445Y-126569873D01*
X152106788Y-126491232D01*
X152246928Y-126389414D01*
X152369414Y-126266928D01*
X152471232Y-126126788D01*
X152549873Y-125972445D01*
X152603402Y-125807701D01*
X152630500Y-125636611D01*
X152630500Y-125463389D01*
X152625748Y-125433389D01*
X159309500Y-125433389D01*
X159309500Y-125606611D01*
X159336598Y-125777701D01*
X159390127Y-125942445D01*
X159468768Y-126096788D01*
X159570586Y-126236928D01*
X159693072Y-126359414D01*
X159833212Y-126461232D01*
X159987555Y-126539873D01*
X160152299Y-126593402D01*
X160323389Y-126620500D01*
X160323390Y-126620500D01*
X160496610Y-126620500D01*
X160496611Y-126620500D01*
X160667701Y-126593402D01*
X160832445Y-126539873D01*
X160986788Y-126461232D01*
X161126928Y-126359414D01*
X161249414Y-126236928D01*
X161351232Y-126096788D01*
X161429873Y-125942445D01*
X161483402Y-125777701D01*
X161510500Y-125606611D01*
X161510500Y-125433389D01*
X161500854Y-125372486D01*
X163239500Y-125372486D01*
X163239500Y-125667513D01*
X163257957Y-125807701D01*
X163278007Y-125959993D01*
X163352212Y-126236930D01*
X163354361Y-126244951D01*
X163354364Y-126244961D01*
X163467254Y-126517500D01*
X163467258Y-126517510D01*
X163614761Y-126772993D01*
X163794352Y-127007040D01*
X163794358Y-127007047D01*
X164002952Y-127215641D01*
X164002959Y-127215647D01*
X164237006Y-127395238D01*
X164492489Y-127542741D01*
X164492490Y-127542741D01*
X164492493Y-127542743D01*
X164765048Y-127655639D01*
X165050007Y-127731993D01*
X165342494Y-127770500D01*
X165342501Y-127770500D01*
X165637499Y-127770500D01*
X165637506Y-127770500D01*
X165929993Y-127731993D01*
X166214952Y-127655639D01*
X166487507Y-127542743D01*
X166742994Y-127395238D01*
X166977042Y-127215646D01*
X167185646Y-127007042D01*
X167365238Y-126772994D01*
X167512743Y-126517507D01*
X167625639Y-126244952D01*
X167701993Y-125959993D01*
X167740500Y-125667506D01*
X167740500Y-125433389D01*
X169469500Y-125433389D01*
X169469500Y-125606611D01*
X169496598Y-125777701D01*
X169550127Y-125942445D01*
X169628768Y-126096788D01*
X169730586Y-126236928D01*
X169853072Y-126359414D01*
X169993212Y-126461232D01*
X170147555Y-126539873D01*
X170312299Y-126593402D01*
X170483389Y-126620500D01*
X170483390Y-126620500D01*
X170656610Y-126620500D01*
X170656611Y-126620500D01*
X170827701Y-126593402D01*
X170992445Y-126539873D01*
X171146788Y-126461232D01*
X171286928Y-126359414D01*
X171409414Y-126236928D01*
X171511232Y-126096788D01*
X171589873Y-125942445D01*
X171643402Y-125777701D01*
X171670500Y-125606611D01*
X171670500Y-125433389D01*
X171643402Y-125262299D01*
X171589873Y-125097555D01*
X171511232Y-124943212D01*
X171409414Y-124803072D01*
X171286928Y-124680586D01*
X171146788Y-124578768D01*
X170992445Y-124500127D01*
X170827701Y-124446598D01*
X170827699Y-124446597D01*
X170827698Y-124446597D01*
X170696271Y-124425781D01*
X170656611Y-124419500D01*
X170483389Y-124419500D01*
X170443728Y-124425781D01*
X170312302Y-124446597D01*
X170147552Y-124500128D01*
X169993211Y-124578768D01*
X169950225Y-124610000D01*
X169853072Y-124680586D01*
X169853070Y-124680588D01*
X169853069Y-124680588D01*
X169730588Y-124803069D01*
X169730588Y-124803070D01*
X169730586Y-124803072D01*
X169708792Y-124833069D01*
X169628768Y-124943211D01*
X169550128Y-125097552D01*
X169496597Y-125262302D01*
X169474393Y-125402494D01*
X169469500Y-125433389D01*
X167740500Y-125433389D01*
X167740500Y-125372494D01*
X167701993Y-125080007D01*
X167625639Y-124795048D01*
X167512743Y-124522493D01*
X167495588Y-124492780D01*
X167365238Y-124267006D01*
X167185647Y-124032959D01*
X167185641Y-124032952D01*
X166977047Y-123824358D01*
X166977040Y-123824352D01*
X166742993Y-123644761D01*
X166487510Y-123497258D01*
X166487500Y-123497254D01*
X166214961Y-123384364D01*
X166214954Y-123384362D01*
X166214952Y-123384361D01*
X165929993Y-123308007D01*
X165865377Y-123299500D01*
X165637513Y-123269500D01*
X165637506Y-123269500D01*
X165342494Y-123269500D01*
X165342486Y-123269500D01*
X165064085Y-123306153D01*
X165050007Y-123308007D01*
X164938045Y-123338007D01*
X164765048Y-123384361D01*
X164765038Y-123384364D01*
X164492499Y-123497254D01*
X164492489Y-123497258D01*
X164237006Y-123644761D01*
X164002959Y-123824352D01*
X164002952Y-123824358D01*
X163794358Y-124032952D01*
X163794352Y-124032959D01*
X163614761Y-124267006D01*
X163467258Y-124522489D01*
X163467254Y-124522499D01*
X163354364Y-124795038D01*
X163354361Y-124795048D01*
X163306623Y-124973212D01*
X163278008Y-125080004D01*
X163278006Y-125080015D01*
X163239500Y-125372486D01*
X161500854Y-125372486D01*
X161483402Y-125262299D01*
X161429873Y-125097555D01*
X161351232Y-124943212D01*
X161249414Y-124803072D01*
X161196882Y-124750540D01*
X161163397Y-124689217D01*
X161168381Y-124619525D01*
X161210253Y-124563592D01*
X161275717Y-124539175D01*
X161303961Y-124540386D01*
X161554072Y-124580000D01*
X161805928Y-124580000D01*
X162054669Y-124540602D01*
X162294184Y-124462780D01*
X162518575Y-124348446D01*
X162518581Y-124348442D01*
X162620697Y-124274250D01*
X162620698Y-124274250D01*
X162004025Y-123657578D01*
X162035258Y-123644641D01*
X162158097Y-123562563D01*
X162262563Y-123458097D01*
X162344641Y-123335258D01*
X162357577Y-123304025D01*
X162974250Y-123920698D01*
X162974250Y-123920697D01*
X163048442Y-123818581D01*
X163048446Y-123818575D01*
X163162780Y-123594184D01*
X163240602Y-123354669D01*
X163280000Y-123105928D01*
X163280000Y-122854071D01*
X163240602Y-122605330D01*
X163162780Y-122365815D01*
X163048442Y-122141416D01*
X162974250Y-122039301D01*
X162974250Y-122039300D01*
X162357577Y-122655973D01*
X162344641Y-122624742D01*
X162262563Y-122501903D01*
X162158097Y-122397437D01*
X162035258Y-122315359D01*
X162004024Y-122302421D01*
X162620698Y-121685748D01*
X162518583Y-121611557D01*
X162294184Y-121497219D01*
X162054669Y-121419397D01*
X161805928Y-121380000D01*
X161554072Y-121380000D01*
X161305330Y-121419397D01*
X161065815Y-121497219D01*
X160841413Y-121611559D01*
X160739301Y-121685747D01*
X160739300Y-121685748D01*
X161355974Y-122302421D01*
X161324742Y-122315359D01*
X161201903Y-122397437D01*
X161097437Y-122501903D01*
X161015359Y-122624742D01*
X161002421Y-122655974D01*
X160385748Y-122039300D01*
X160385747Y-122039301D01*
X160311559Y-122141413D01*
X160197219Y-122365815D01*
X160119397Y-122605330D01*
X160080000Y-122854071D01*
X160080000Y-123105928D01*
X160119397Y-123354669D01*
X160197219Y-123594184D01*
X160311557Y-123818583D01*
X160385748Y-123920697D01*
X160385748Y-123920698D01*
X161002421Y-123304024D01*
X161015359Y-123335258D01*
X161097437Y-123458097D01*
X161201903Y-123562563D01*
X161324742Y-123644641D01*
X161355974Y-123657577D01*
X160739300Y-124274250D01*
X160741598Y-124303449D01*
X160727233Y-124371827D01*
X160678181Y-124421583D01*
X160610016Y-124436921D01*
X160598583Y-124435650D01*
X160496611Y-124419500D01*
X160323389Y-124419500D01*
X160283728Y-124425781D01*
X160152302Y-124446597D01*
X159987552Y-124500128D01*
X159833211Y-124578768D01*
X159790225Y-124610000D01*
X159693072Y-124680586D01*
X159693070Y-124680588D01*
X159693069Y-124680588D01*
X159570588Y-124803069D01*
X159570588Y-124803070D01*
X159570586Y-124803072D01*
X159548792Y-124833069D01*
X159468768Y-124943211D01*
X159390128Y-125097552D01*
X159336597Y-125262302D01*
X159314393Y-125402494D01*
X159309500Y-125433389D01*
X152625748Y-125433389D01*
X152603402Y-125292299D01*
X152549873Y-125127555D01*
X152471232Y-124973212D01*
X152369414Y-124833072D01*
X152246928Y-124710586D01*
X152106788Y-124608768D01*
X151952445Y-124530127D01*
X151787701Y-124476598D01*
X151787699Y-124476597D01*
X151787698Y-124476597D01*
X151656271Y-124455781D01*
X151616611Y-124449500D01*
X151443389Y-124449500D01*
X151403728Y-124455781D01*
X151272302Y-124476597D01*
X151107552Y-124530128D01*
X150953211Y-124608768D01*
X150897115Y-124649525D01*
X150813072Y-124710586D01*
X150813070Y-124710588D01*
X150813069Y-124710588D01*
X150690588Y-124833069D01*
X150690588Y-124833070D01*
X150690586Y-124833072D01*
X150646859Y-124893256D01*
X150588768Y-124973211D01*
X150510128Y-125127552D01*
X150456597Y-125292302D01*
X150434251Y-125433394D01*
X150429500Y-125463389D01*
X148700500Y-125463389D01*
X148700500Y-125402494D01*
X148661993Y-125110007D01*
X148585639Y-124825048D01*
X148576535Y-124803070D01*
X148512935Y-124649525D01*
X148472743Y-124552493D01*
X148455420Y-124522489D01*
X148325238Y-124297006D01*
X148145647Y-124062959D01*
X148145641Y-124062952D01*
X147937047Y-123854358D01*
X147937040Y-123854352D01*
X147702993Y-123674761D01*
X147447510Y-123527258D01*
X147447500Y-123527254D01*
X147174961Y-123414364D01*
X147174954Y-123414362D01*
X147174952Y-123414361D01*
X146889993Y-123338007D01*
X146841113Y-123331571D01*
X146597513Y-123299500D01*
X146597506Y-123299500D01*
X146302494Y-123299500D01*
X146302486Y-123299500D01*
X146024085Y-123336153D01*
X146010007Y-123338007D01*
X145836999Y-123384364D01*
X145725048Y-123414361D01*
X145725038Y-123414364D01*
X145452499Y-123527254D01*
X145452489Y-123527258D01*
X145197006Y-123674761D01*
X144962959Y-123854352D01*
X144962952Y-123854358D01*
X144754358Y-124062952D01*
X144754352Y-124062959D01*
X144574761Y-124297006D01*
X144427258Y-124552489D01*
X144427254Y-124552499D01*
X144314364Y-124825038D01*
X144314361Y-124825048D01*
X144241344Y-125097555D01*
X144238008Y-125110004D01*
X144238006Y-125110015D01*
X144199500Y-125402486D01*
X142460854Y-125402486D01*
X142443402Y-125292299D01*
X142389873Y-125127555D01*
X142311232Y-124973212D01*
X142209414Y-124833072D01*
X142156882Y-124780540D01*
X142123397Y-124719217D01*
X142128381Y-124649525D01*
X142170253Y-124593592D01*
X142235717Y-124569175D01*
X142263961Y-124570386D01*
X142514072Y-124610000D01*
X142765928Y-124610000D01*
X143014669Y-124570602D01*
X143254184Y-124492780D01*
X143478575Y-124378446D01*
X143478581Y-124378442D01*
X143580697Y-124304250D01*
X143580698Y-124304250D01*
X142964025Y-123687578D01*
X142995258Y-123674641D01*
X143118097Y-123592563D01*
X143222563Y-123488097D01*
X143304641Y-123365258D01*
X143317577Y-123334025D01*
X143934250Y-123950698D01*
X143934250Y-123950697D01*
X144008442Y-123848581D01*
X144008446Y-123848575D01*
X144122780Y-123624184D01*
X144200602Y-123384669D01*
X144240000Y-123135928D01*
X144240000Y-122884071D01*
X144237550Y-122868603D01*
X144200602Y-122635330D01*
X144122780Y-122395815D01*
X144008442Y-122171416D01*
X143934250Y-122069301D01*
X143934250Y-122069300D01*
X143317577Y-122685973D01*
X143304641Y-122654742D01*
X143222563Y-122531903D01*
X143118097Y-122427437D01*
X142995258Y-122345359D01*
X142964024Y-122332421D01*
X143580698Y-121715748D01*
X143478583Y-121641557D01*
X143254184Y-121527219D01*
X143014669Y-121449397D01*
X142765928Y-121410000D01*
X142514072Y-121410000D01*
X142265330Y-121449397D01*
X142025815Y-121527219D01*
X141801413Y-121641559D01*
X141699301Y-121715747D01*
X141699300Y-121715748D01*
X142315974Y-122332421D01*
X142284742Y-122345359D01*
X142161903Y-122427437D01*
X142057437Y-122531903D01*
X141975359Y-122654742D01*
X141962421Y-122685974D01*
X141345748Y-122069300D01*
X141345747Y-122069301D01*
X141271559Y-122171413D01*
X141157219Y-122395815D01*
X141079397Y-122635330D01*
X141040000Y-122884071D01*
X141040000Y-123135928D01*
X141079397Y-123384669D01*
X141157219Y-123624184D01*
X141271557Y-123848583D01*
X141345748Y-123950697D01*
X141345748Y-123950698D01*
X141962421Y-123334024D01*
X141975359Y-123365258D01*
X142057437Y-123488097D01*
X142161903Y-123592563D01*
X142284742Y-123674641D01*
X142315974Y-123687577D01*
X141699300Y-124304250D01*
X141701598Y-124333449D01*
X141687233Y-124401827D01*
X141638181Y-124451583D01*
X141570016Y-124466921D01*
X141558583Y-124465650D01*
X141456611Y-124449500D01*
X141283389Y-124449500D01*
X141243728Y-124455781D01*
X141112302Y-124476597D01*
X140947552Y-124530128D01*
X140793211Y-124608768D01*
X140737115Y-124649525D01*
X140653072Y-124710586D01*
X140653070Y-124710588D01*
X140653069Y-124710588D01*
X140530588Y-124833069D01*
X140530588Y-124833070D01*
X140530586Y-124833072D01*
X140486859Y-124893256D01*
X140428768Y-124973211D01*
X140350128Y-125127552D01*
X140296597Y-125292302D01*
X140274251Y-125433394D01*
X140269500Y-125463389D01*
X133530500Y-125463389D01*
X133503402Y-125292299D01*
X133449873Y-125127555D01*
X133371232Y-124973212D01*
X133269414Y-124833072D01*
X133146928Y-124710586D01*
X133006788Y-124608768D01*
X132852445Y-124530127D01*
X132687701Y-124476598D01*
X132687699Y-124476597D01*
X132687698Y-124476597D01*
X132556271Y-124455781D01*
X132516611Y-124449500D01*
X132343389Y-124449500D01*
X132303728Y-124455781D01*
X132172302Y-124476597D01*
X132007552Y-124530128D01*
X131853211Y-124608768D01*
X131797115Y-124649525D01*
X131713072Y-124710586D01*
X131713070Y-124710588D01*
X131713069Y-124710588D01*
X131590588Y-124833069D01*
X131590588Y-124833070D01*
X131590586Y-124833072D01*
X131546859Y-124893256D01*
X131488768Y-124973211D01*
X131410128Y-125127552D01*
X131356597Y-125292302D01*
X131334251Y-125433394D01*
X131329500Y-125463389D01*
X129600500Y-125463389D01*
X129600500Y-125402494D01*
X129561993Y-125110007D01*
X129485639Y-124825048D01*
X129476535Y-124803070D01*
X129412935Y-124649525D01*
X129372743Y-124552493D01*
X129355420Y-124522489D01*
X129225238Y-124297006D01*
X129045647Y-124062959D01*
X129045641Y-124062952D01*
X128837047Y-123854358D01*
X128837040Y-123854352D01*
X128602993Y-123674761D01*
X128347510Y-123527258D01*
X128347500Y-123527254D01*
X128074961Y-123414364D01*
X128074954Y-123414362D01*
X128074952Y-123414361D01*
X127789993Y-123338007D01*
X127741113Y-123331571D01*
X127497513Y-123299500D01*
X127497506Y-123299500D01*
X127202494Y-123299500D01*
X127202486Y-123299500D01*
X126924085Y-123336153D01*
X126910007Y-123338007D01*
X126736999Y-123384364D01*
X126625048Y-123414361D01*
X126625038Y-123414364D01*
X126352499Y-123527254D01*
X126352489Y-123527258D01*
X126097006Y-123674761D01*
X125862959Y-123854352D01*
X125862952Y-123854358D01*
X125654358Y-124062952D01*
X125654352Y-124062959D01*
X125474761Y-124297006D01*
X125327258Y-124552489D01*
X125327254Y-124552499D01*
X125214364Y-124825038D01*
X125214361Y-124825048D01*
X125141344Y-125097555D01*
X125138008Y-125110004D01*
X125138006Y-125110015D01*
X125099500Y-125402486D01*
X123360854Y-125402486D01*
X123343402Y-125292299D01*
X123289873Y-125127555D01*
X123211232Y-124973212D01*
X123109414Y-124833072D01*
X123056882Y-124780540D01*
X123023397Y-124719217D01*
X123028381Y-124649525D01*
X123070253Y-124593592D01*
X123135717Y-124569175D01*
X123163961Y-124570386D01*
X123414072Y-124610000D01*
X123665928Y-124610000D01*
X123914669Y-124570602D01*
X124154184Y-124492780D01*
X124378575Y-124378446D01*
X124378581Y-124378442D01*
X124480697Y-124304250D01*
X124480698Y-124304250D01*
X123864025Y-123687578D01*
X123895258Y-123674641D01*
X124018097Y-123592563D01*
X124122563Y-123488097D01*
X124204641Y-123365258D01*
X124217577Y-123334025D01*
X124834250Y-123950698D01*
X124834250Y-123950697D01*
X124908442Y-123848581D01*
X124908446Y-123848575D01*
X125022780Y-123624184D01*
X125100602Y-123384669D01*
X125140000Y-123135928D01*
X125140000Y-122884071D01*
X125100602Y-122635330D01*
X125022780Y-122395815D01*
X124908442Y-122171416D01*
X124834250Y-122069301D01*
X124834250Y-122069300D01*
X124217577Y-122685973D01*
X124204641Y-122654742D01*
X124122563Y-122531903D01*
X124018097Y-122427437D01*
X123895258Y-122345359D01*
X123864024Y-122332421D01*
X124480698Y-121715748D01*
X124378583Y-121641557D01*
X124154184Y-121527219D01*
X123914669Y-121449397D01*
X123665928Y-121410000D01*
X123414072Y-121410000D01*
X123165330Y-121449397D01*
X122925815Y-121527219D01*
X122701413Y-121641559D01*
X122599301Y-121715747D01*
X122599300Y-121715748D01*
X123215974Y-122332421D01*
X123184742Y-122345359D01*
X123061903Y-122427437D01*
X122957437Y-122531903D01*
X122875359Y-122654742D01*
X122862421Y-122685974D01*
X122245748Y-122069300D01*
X122245747Y-122069301D01*
X122171559Y-122171413D01*
X122057219Y-122395815D01*
X121979397Y-122635330D01*
X121940000Y-122884071D01*
X121940000Y-123135928D01*
X121979397Y-123384669D01*
X122057219Y-123624184D01*
X122171557Y-123848583D01*
X122245748Y-123950697D01*
X122245748Y-123950698D01*
X122862421Y-123334024D01*
X122875359Y-123365258D01*
X122957437Y-123488097D01*
X123061903Y-123592563D01*
X123184742Y-123674641D01*
X123215974Y-123687577D01*
X122599300Y-124304250D01*
X122601598Y-124333449D01*
X122587233Y-124401827D01*
X122538181Y-124451583D01*
X122470016Y-124466921D01*
X122458583Y-124465650D01*
X122356611Y-124449500D01*
X122183389Y-124449500D01*
X122143728Y-124455781D01*
X122012302Y-124476597D01*
X121847552Y-124530128D01*
X121693211Y-124608768D01*
X121637115Y-124649525D01*
X121553072Y-124710586D01*
X121553070Y-124710588D01*
X121553069Y-124710588D01*
X121430588Y-124833069D01*
X121430588Y-124833070D01*
X121430586Y-124833072D01*
X121386859Y-124893256D01*
X121328768Y-124973211D01*
X121250128Y-125127552D01*
X121196597Y-125292302D01*
X121174251Y-125433394D01*
X121169500Y-125463389D01*
X117977129Y-125463389D01*
X117977132Y-125458432D01*
X117978899Y-122879120D01*
X117979664Y-121762923D01*
X117980636Y-120344038D01*
X128289500Y-120344038D01*
X128289500Y-120595961D01*
X128328910Y-120844785D01*
X128406760Y-121084383D01*
X128485413Y-121238747D01*
X128505844Y-121278845D01*
X128521132Y-121308848D01*
X128669201Y-121512649D01*
X128669205Y-121512654D01*
X128847345Y-121690794D01*
X128847350Y-121690798D01*
X129009859Y-121808867D01*
X129051155Y-121838870D01*
X129194184Y-121911747D01*
X129275616Y-121953239D01*
X129275618Y-121953239D01*
X129275621Y-121953241D01*
X129515215Y-122031090D01*
X129764038Y-122070500D01*
X129764039Y-122070500D01*
X130015961Y-122070500D01*
X130015962Y-122070500D01*
X130264785Y-122031090D01*
X130504379Y-121953241D01*
X130728845Y-121838870D01*
X130932656Y-121690793D01*
X131110793Y-121512656D01*
X131258870Y-121308845D01*
X131373241Y-121084379D01*
X131451090Y-120844785D01*
X131490500Y-120595962D01*
X131490500Y-120344038D01*
X147389500Y-120344038D01*
X147389500Y-120595961D01*
X147428910Y-120844785D01*
X147506760Y-121084383D01*
X147585413Y-121238747D01*
X147605844Y-121278845D01*
X147621132Y-121308848D01*
X147769201Y-121512649D01*
X147769205Y-121512654D01*
X147947345Y-121690794D01*
X147947350Y-121690798D01*
X148109859Y-121808867D01*
X148151155Y-121838870D01*
X148294184Y-121911747D01*
X148375616Y-121953239D01*
X148375618Y-121953239D01*
X148375621Y-121953241D01*
X148615215Y-122031090D01*
X148864038Y-122070500D01*
X148864039Y-122070500D01*
X149115961Y-122070500D01*
X149115962Y-122070500D01*
X149364785Y-122031090D01*
X149604379Y-121953241D01*
X149828845Y-121838870D01*
X150032656Y-121690793D01*
X150210793Y-121512656D01*
X150358870Y-121308845D01*
X150473241Y-121084379D01*
X150551090Y-120844785D01*
X150590500Y-120595962D01*
X150590500Y-120344038D01*
X150585748Y-120314038D01*
X166429500Y-120314038D01*
X166429500Y-120565962D01*
X166434252Y-120595962D01*
X166468910Y-120814785D01*
X166546760Y-121054383D01*
X166661132Y-121278848D01*
X166809201Y-121482649D01*
X166809205Y-121482654D01*
X166987345Y-121660794D01*
X166987350Y-121660798D01*
X167062983Y-121715748D01*
X167191155Y-121808870D01*
X167334184Y-121881747D01*
X167415616Y-121923239D01*
X167415618Y-121923239D01*
X167415621Y-121923241D01*
X167655215Y-122001090D01*
X167904038Y-122040500D01*
X167904039Y-122040500D01*
X168155961Y-122040500D01*
X168155962Y-122040500D01*
X168404785Y-122001090D01*
X168644379Y-121923241D01*
X168868845Y-121808870D01*
X169072656Y-121660793D01*
X169250793Y-121482656D01*
X169398870Y-121278845D01*
X169513241Y-121054379D01*
X169591090Y-120814785D01*
X169630500Y-120565962D01*
X169630500Y-120314038D01*
X169591090Y-120065215D01*
X169513241Y-119825621D01*
X169513239Y-119825618D01*
X169513239Y-119825616D01*
X169471747Y-119744184D01*
X169398870Y-119601155D01*
X169272590Y-119427345D01*
X169250798Y-119397350D01*
X169250794Y-119397345D01*
X169072654Y-119219205D01*
X169072649Y-119219201D01*
X168868848Y-119071132D01*
X168868847Y-119071131D01*
X168868845Y-119071130D01*
X168798747Y-119035413D01*
X168644383Y-118956760D01*
X168404785Y-118878910D01*
X168345373Y-118869500D01*
X168155962Y-118839500D01*
X167904038Y-118839500D01*
X167779626Y-118859205D01*
X167655214Y-118878910D01*
X167415616Y-118956760D01*
X167191151Y-119071132D01*
X166987350Y-119219201D01*
X166987345Y-119219205D01*
X166809205Y-119397345D01*
X166809201Y-119397350D01*
X166661132Y-119601151D01*
X166546760Y-119825616D01*
X166468910Y-120065214D01*
X166464158Y-120095215D01*
X166429500Y-120314038D01*
X150585748Y-120314038D01*
X150551090Y-120095215D01*
X150473241Y-119855621D01*
X150473239Y-119855618D01*
X150473239Y-119855616D01*
X150431747Y-119774184D01*
X150358870Y-119631155D01*
X150337071Y-119601151D01*
X150210798Y-119427350D01*
X150210794Y-119427345D01*
X150032654Y-119249205D01*
X150032649Y-119249201D01*
X149828848Y-119101132D01*
X149828847Y-119101131D01*
X149828845Y-119101130D01*
X149758747Y-119065413D01*
X149604383Y-118986760D01*
X149364785Y-118908910D01*
X149115962Y-118869500D01*
X148864038Y-118869500D01*
X148739626Y-118889205D01*
X148615214Y-118908910D01*
X148375616Y-118986760D01*
X148151151Y-119101132D01*
X147947350Y-119249201D01*
X147947345Y-119249205D01*
X147769205Y-119427345D01*
X147769201Y-119427350D01*
X147621132Y-119631151D01*
X147506760Y-119855616D01*
X147428910Y-120095214D01*
X147389500Y-120344038D01*
X131490500Y-120344038D01*
X131451090Y-120095215D01*
X131373241Y-119855621D01*
X131373239Y-119855618D01*
X131373239Y-119855616D01*
X131331747Y-119774184D01*
X131258870Y-119631155D01*
X131237071Y-119601151D01*
X131110798Y-119427350D01*
X131110794Y-119427345D01*
X130932654Y-119249205D01*
X130932649Y-119249201D01*
X130728848Y-119101132D01*
X130728847Y-119101131D01*
X130728845Y-119101130D01*
X130658747Y-119065413D01*
X130504383Y-118986760D01*
X130264785Y-118908910D01*
X130015962Y-118869500D01*
X129764038Y-118869500D01*
X129639626Y-118889205D01*
X129515214Y-118908910D01*
X129275616Y-118986760D01*
X129051151Y-119101132D01*
X128847350Y-119249201D01*
X128847345Y-119249205D01*
X128669205Y-119427345D01*
X128669201Y-119427350D01*
X128521132Y-119631151D01*
X128406760Y-119855616D01*
X128328910Y-120095214D01*
X128289500Y-120344038D01*
X117980636Y-120344038D01*
X117980639Y-120339081D01*
X117991723Y-104157056D01*
X118006714Y-82272135D01*
X119449500Y-82272135D01*
X119449500Y-84067870D01*
X119449501Y-84067876D01*
X119455908Y-84127483D01*
X119506202Y-84262328D01*
X119506206Y-84262335D01*
X119592452Y-84377544D01*
X119592455Y-84377547D01*
X119707664Y-84463793D01*
X119707671Y-84463797D01*
X119752618Y-84480561D01*
X119842517Y-84514091D01*
X119902127Y-84520500D01*
X119912685Y-84520499D01*
X119979723Y-84540179D01*
X120000372Y-84556818D01*
X120670591Y-85227037D01*
X120607007Y-85244075D01*
X120492993Y-85309901D01*
X120399901Y-85402993D01*
X120334075Y-85517007D01*
X120317037Y-85580591D01*
X119684728Y-84948282D01*
X119684727Y-84948282D01*
X119645380Y-85002439D01*
X119548904Y-85191782D01*
X119483242Y-85393869D01*
X119483242Y-85393872D01*
X119450000Y-85603753D01*
X119450000Y-85816246D01*
X119483242Y-86026127D01*
X119483242Y-86026130D01*
X119548904Y-86228217D01*
X119645375Y-86417550D01*
X119684728Y-86471716D01*
X120317037Y-85839408D01*
X120334075Y-85902993D01*
X120399901Y-86017007D01*
X120492993Y-86110099D01*
X120607007Y-86175925D01*
X120670590Y-86192962D01*
X120038282Y-86825269D01*
X120038282Y-86825270D01*
X120092452Y-86864626D01*
X120092451Y-86864626D01*
X120101495Y-86869234D01*
X120152292Y-86917208D01*
X120169087Y-86985029D01*
X120146550Y-87051164D01*
X120101499Y-87090202D01*
X120092182Y-87094949D01*
X119920213Y-87219890D01*
X119769890Y-87370213D01*
X119644951Y-87542179D01*
X119548444Y-87731585D01*
X119482753Y-87933760D01*
X119449500Y-88143713D01*
X119449500Y-88356286D01*
X119475895Y-88522941D01*
X119482754Y-88566243D01*
X119537749Y-88735500D01*
X119548444Y-88768414D01*
X119644951Y-88957820D01*
X119769890Y-89129786D01*
X119920213Y-89280109D01*
X120092182Y-89405050D01*
X120100946Y-89409516D01*
X120151742Y-89457491D01*
X120168536Y-89525312D01*
X120145998Y-89591447D01*
X120100946Y-89630484D01*
X120092182Y-89634949D01*
X119920213Y-89759890D01*
X119769890Y-89910213D01*
X119644951Y-90082179D01*
X119548444Y-90271585D01*
X119482753Y-90473760D01*
X119449500Y-90683713D01*
X119449500Y-90896286D01*
X119475895Y-91062941D01*
X119482754Y-91106243D01*
X119543804Y-91294136D01*
X119548444Y-91308414D01*
X119644951Y-91497820D01*
X119769890Y-91669786D01*
X119920213Y-91820109D01*
X120092182Y-91945050D01*
X120100946Y-91949516D01*
X120151742Y-91997491D01*
X120168536Y-92065312D01*
X120145998Y-92131447D01*
X120100946Y-92170484D01*
X120092182Y-92174949D01*
X119920213Y-92299890D01*
X119769890Y-92450213D01*
X119644951Y-92622179D01*
X119548444Y-92811585D01*
X119482753Y-93013760D01*
X119449500Y-93223713D01*
X119449500Y-93436286D01*
X119475827Y-93602512D01*
X119482754Y-93646243D01*
X119539211Y-93820000D01*
X119548444Y-93848414D01*
X119644951Y-94037820D01*
X119769890Y-94209786D01*
X119920213Y-94360109D01*
X120092182Y-94485050D01*
X120100946Y-94489516D01*
X120151742Y-94537491D01*
X120168536Y-94605312D01*
X120145998Y-94671447D01*
X120100946Y-94710484D01*
X120092182Y-94714949D01*
X119920213Y-94839890D01*
X119769890Y-94990213D01*
X119644951Y-95162179D01*
X119548444Y-95351585D01*
X119482753Y-95553760D01*
X119449500Y-95763713D01*
X119449500Y-95976286D01*
X119475895Y-96142941D01*
X119482754Y-96186243D01*
X119537749Y-96355500D01*
X119548444Y-96388414D01*
X119644951Y-96577820D01*
X119769890Y-96749786D01*
X119920213Y-96900109D01*
X120092182Y-97025050D01*
X120100946Y-97029516D01*
X120151742Y-97077491D01*
X120168536Y-97145312D01*
X120145998Y-97211447D01*
X120100946Y-97250484D01*
X120092182Y-97254949D01*
X119920213Y-97379890D01*
X119769890Y-97530213D01*
X119644951Y-97702179D01*
X119548444Y-97891585D01*
X119482753Y-98093760D01*
X119449500Y-98303713D01*
X119449500Y-98516286D01*
X119475895Y-98682941D01*
X119482754Y-98726243D01*
X119537749Y-98895500D01*
X119548444Y-98928414D01*
X119644951Y-99117820D01*
X119769890Y-99289786D01*
X119920213Y-99440109D01*
X120092182Y-99565050D01*
X120100946Y-99569516D01*
X120151742Y-99617491D01*
X120168536Y-99685312D01*
X120145998Y-99751447D01*
X120100946Y-99790484D01*
X120092182Y-99794949D01*
X119920213Y-99919890D01*
X119769890Y-100070213D01*
X119644951Y-100242179D01*
X119548444Y-100431585D01*
X119482753Y-100633760D01*
X119449500Y-100843713D01*
X119449500Y-101056286D01*
X119475895Y-101222941D01*
X119482754Y-101266243D01*
X119537749Y-101435500D01*
X119548444Y-101468414D01*
X119644951Y-101657820D01*
X119769890Y-101829786D01*
X119920213Y-101980109D01*
X120092179Y-102105048D01*
X120092181Y-102105049D01*
X120092184Y-102105051D01*
X120281588Y-102201557D01*
X120483757Y-102267246D01*
X120693713Y-102300500D01*
X120693714Y-102300500D01*
X120906286Y-102300500D01*
X120906287Y-102300500D01*
X121116243Y-102267246D01*
X121318412Y-102201557D01*
X121507816Y-102105051D01*
X121607676Y-102032499D01*
X121679786Y-101980109D01*
X121679788Y-101980106D01*
X121679792Y-101980104D01*
X121830104Y-101829792D01*
X121830106Y-101829788D01*
X121830109Y-101829786D01*
X121955048Y-101657820D01*
X121955047Y-101657820D01*
X121955051Y-101657816D01*
X122051557Y-101468412D01*
X122117246Y-101266243D01*
X122150500Y-101056287D01*
X122150500Y-100843713D01*
X122117246Y-100633757D01*
X122051557Y-100431588D01*
X121955051Y-100242184D01*
X121955049Y-100242181D01*
X121955048Y-100242179D01*
X121830109Y-100070213D01*
X121679786Y-99919890D01*
X121507820Y-99794951D01*
X121507115Y-99794591D01*
X121499054Y-99790485D01*
X121448259Y-99742512D01*
X121431463Y-99674692D01*
X121453999Y-99608556D01*
X121499054Y-99569515D01*
X121507816Y-99565051D01*
X121607676Y-99492499D01*
X121679786Y-99440109D01*
X121679788Y-99440106D01*
X121679792Y-99440104D01*
X121830104Y-99289792D01*
X121830106Y-99289788D01*
X121830109Y-99289786D01*
X121955048Y-99117820D01*
X121955047Y-99117820D01*
X121955051Y-99117816D01*
X122051557Y-98928412D01*
X122117246Y-98726243D01*
X122150500Y-98516287D01*
X122150500Y-98303713D01*
X122117246Y-98093757D01*
X122051557Y-97891588D01*
X121955051Y-97702184D01*
X121955049Y-97702181D01*
X121955048Y-97702179D01*
X121830109Y-97530213D01*
X121679786Y-97379890D01*
X121507820Y-97254951D01*
X121507115Y-97254591D01*
X121499054Y-97250485D01*
X121448259Y-97202512D01*
X121431463Y-97134692D01*
X121453999Y-97068556D01*
X121499054Y-97029515D01*
X121507816Y-97025051D01*
X121607676Y-96952499D01*
X121679786Y-96900109D01*
X121679788Y-96900106D01*
X121679792Y-96900104D01*
X121830104Y-96749792D01*
X121830106Y-96749788D01*
X121830109Y-96749786D01*
X121955048Y-96577820D01*
X121955047Y-96577820D01*
X121955051Y-96577816D01*
X122051557Y-96388412D01*
X122117246Y-96186243D01*
X122150500Y-95976287D01*
X122150500Y-95763713D01*
X122117246Y-95553757D01*
X122051557Y-95351588D01*
X121955051Y-95162184D01*
X121955049Y-95162181D01*
X121955048Y-95162179D01*
X121830109Y-94990213D01*
X121679786Y-94839890D01*
X121507820Y-94714951D01*
X121507115Y-94714591D01*
X121499054Y-94710485D01*
X121448259Y-94662512D01*
X121431463Y-94594692D01*
X121453999Y-94528556D01*
X121499054Y-94489515D01*
X121507816Y-94485051D01*
X121607676Y-94412499D01*
X121679786Y-94360109D01*
X121679788Y-94360106D01*
X121679792Y-94360104D01*
X121830104Y-94209792D01*
X121830106Y-94209788D01*
X121830109Y-94209786D01*
X121955048Y-94037820D01*
X121955047Y-94037820D01*
X121955051Y-94037816D01*
X122051557Y-93848412D01*
X122117246Y-93646243D01*
X122150500Y-93436287D01*
X122150500Y-93223713D01*
X122117246Y-93013757D01*
X122051557Y-92811588D01*
X121955051Y-92622184D01*
X121955049Y-92622181D01*
X121955048Y-92622179D01*
X121830109Y-92450213D01*
X121679786Y-92299890D01*
X121507820Y-92174951D01*
X121507115Y-92174591D01*
X121499054Y-92170485D01*
X121448259Y-92122512D01*
X121431463Y-92054692D01*
X121453999Y-91988556D01*
X121499054Y-91949515D01*
X121507816Y-91945051D01*
X121656523Y-91837010D01*
X121679786Y-91820109D01*
X121679788Y-91820106D01*
X121679792Y-91820104D01*
X121830104Y-91669792D01*
X121830106Y-91669788D01*
X121830109Y-91669786D01*
X121955048Y-91497820D01*
X121955047Y-91497820D01*
X121955051Y-91497816D01*
X122051557Y-91308412D01*
X122117246Y-91106243D01*
X122150500Y-90896287D01*
X122150500Y-90683713D01*
X122117246Y-90473757D01*
X122051557Y-90271588D01*
X121955051Y-90082184D01*
X121955049Y-90082181D01*
X121955048Y-90082179D01*
X121830109Y-89910213D01*
X121679786Y-89759890D01*
X121507820Y-89634951D01*
X121507115Y-89634591D01*
X121499054Y-89630485D01*
X121448259Y-89582512D01*
X121431463Y-89514692D01*
X121453999Y-89448556D01*
X121499054Y-89409515D01*
X121507816Y-89405051D01*
X121607676Y-89332499D01*
X121679786Y-89280109D01*
X121679788Y-89280106D01*
X121679792Y-89280104D01*
X121830104Y-89129792D01*
X121830106Y-89129788D01*
X121830109Y-89129786D01*
X121955048Y-88957820D01*
X121955047Y-88957820D01*
X121955051Y-88957816D01*
X122051557Y-88768412D01*
X122117246Y-88566243D01*
X122150500Y-88356287D01*
X122150500Y-88143713D01*
X122117246Y-87933757D01*
X122051557Y-87731588D01*
X121955051Y-87542184D01*
X121955049Y-87542181D01*
X121955048Y-87542179D01*
X121830109Y-87370213D01*
X121679786Y-87219890D01*
X121507817Y-87094949D01*
X121498504Y-87090204D01*
X121447707Y-87042230D01*
X121430912Y-86974409D01*
X121453449Y-86908274D01*
X121498507Y-86869232D01*
X121507555Y-86864622D01*
X121561716Y-86825270D01*
X121561717Y-86825270D01*
X120929408Y-86192962D01*
X120992993Y-86175925D01*
X121107007Y-86110099D01*
X121200099Y-86017007D01*
X121265925Y-85902993D01*
X121282962Y-85839408D01*
X121915270Y-86471717D01*
X121915270Y-86471716D01*
X121954622Y-86417554D01*
X122051095Y-86228217D01*
X122116757Y-86026130D01*
X122116757Y-86026127D01*
X122150000Y-85816246D01*
X122150000Y-85603753D01*
X122116757Y-85393872D01*
X122116757Y-85393869D01*
X122051095Y-85191782D01*
X121954624Y-85002449D01*
X121915270Y-84948282D01*
X121915269Y-84948282D01*
X121282962Y-85580590D01*
X121265925Y-85517007D01*
X121200099Y-85402993D01*
X121107007Y-85309901D01*
X120992993Y-85244075D01*
X120929409Y-85227037D01*
X121599627Y-84556818D01*
X121660950Y-84523333D01*
X121687307Y-84520499D01*
X121697872Y-84520499D01*
X121757483Y-84514091D01*
X121892331Y-84463796D01*
X122007546Y-84377546D01*
X122093796Y-84262331D01*
X122144091Y-84127483D01*
X122150500Y-84067873D01*
X122150499Y-82272128D01*
X122144091Y-82212517D01*
X122093796Y-82077669D01*
X122093795Y-82077668D01*
X122093793Y-82077664D01*
X122007547Y-81962455D01*
X122007544Y-81962452D01*
X121892335Y-81876206D01*
X121892328Y-81876202D01*
X121757482Y-81825908D01*
X121757483Y-81825908D01*
X121697883Y-81819501D01*
X121697881Y-81819500D01*
X121697873Y-81819500D01*
X121697864Y-81819500D01*
X119902129Y-81819500D01*
X119902123Y-81819501D01*
X119842516Y-81825908D01*
X119707671Y-81876202D01*
X119707664Y-81876206D01*
X119592455Y-81962452D01*
X119592452Y-81962455D01*
X119506206Y-82077664D01*
X119506202Y-82077671D01*
X119455908Y-82212517D01*
X119449866Y-82268721D01*
X119449501Y-82272123D01*
X119449500Y-82272135D01*
X118006714Y-82272135D01*
X118010069Y-77374413D01*
X118029800Y-77307388D01*
X118082635Y-77261669D01*
X118134069Y-77250499D01*
X136825887Y-77250499D01*
X136825889Y-77250499D01*
X136953183Y-77216391D01*
X137067311Y-77150499D01*
X137160497Y-77057313D01*
X137226389Y-76943185D01*
X137260497Y-76815891D01*
X137260497Y-75082135D01*
X144439500Y-75082135D01*
X144439500Y-77177870D01*
X144439501Y-77177876D01*
X144445908Y-77237483D01*
X144496202Y-77372328D01*
X144496206Y-77372335D01*
X144582452Y-77487544D01*
X144582455Y-77487547D01*
X144697664Y-77573793D01*
X144697671Y-77573797D01*
X144832517Y-77624091D01*
X144832516Y-77624091D01*
X144839444Y-77624835D01*
X144892127Y-77630500D01*
X148187872Y-77630499D01*
X148247483Y-77624091D01*
X148382331Y-77573796D01*
X148497546Y-77487546D01*
X148583796Y-77372331D01*
X148634091Y-77237483D01*
X148640500Y-77177873D01*
X148640499Y-75609095D01*
X148660184Y-75542057D01*
X148712987Y-75496302D01*
X148782146Y-75486358D01*
X148845702Y-75515383D01*
X148852180Y-75521415D01*
X156774584Y-83443819D01*
X156808069Y-83505142D01*
X156803085Y-83574834D01*
X156761213Y-83630767D01*
X156695749Y-83655184D01*
X156686903Y-83655500D01*
X156258129Y-83655500D01*
X156258123Y-83655501D01*
X156198516Y-83661908D01*
X156063671Y-83712202D01*
X156063664Y-83712206D01*
X155948455Y-83798452D01*
X155948452Y-83798455D01*
X155862206Y-83913664D01*
X155862202Y-83913671D01*
X155811908Y-84048517D01*
X155805501Y-84108116D01*
X155805500Y-84108135D01*
X155805500Y-85711870D01*
X155805501Y-85711876D01*
X155811908Y-85771483D01*
X155862202Y-85906328D01*
X155862206Y-85906335D01*
X155948452Y-86021544D01*
X155948455Y-86021547D01*
X156063664Y-86107793D01*
X156063671Y-86107797D01*
X156198517Y-86158091D01*
X156198516Y-86158091D01*
X156205444Y-86158835D01*
X156258127Y-86164500D01*
X156313424Y-86164499D01*
X156380461Y-86184182D01*
X156426216Y-86236986D01*
X156436161Y-86306144D01*
X156407137Y-86369700D01*
X156386309Y-86388817D01*
X156242749Y-86493119D01*
X156103115Y-86632753D01*
X155987058Y-86792495D01*
X155897408Y-86968441D01*
X155836389Y-87156236D01*
X155805500Y-87351263D01*
X155805500Y-87548736D01*
X155836389Y-87743763D01*
X155897408Y-87931558D01*
X155897409Y-87931561D01*
X155987056Y-88107501D01*
X155987058Y-88107504D01*
X156103115Y-88267246D01*
X156242753Y-88406884D01*
X156392234Y-88515486D01*
X156402499Y-88522944D01*
X156572404Y-88609516D01*
X156623199Y-88657490D01*
X156639994Y-88725311D01*
X156617456Y-88791446D01*
X156572404Y-88830483D01*
X156415321Y-88910522D01*
X156402495Y-88917058D01*
X156242753Y-89033115D01*
X156103115Y-89172753D01*
X155987058Y-89332495D01*
X155897408Y-89508441D01*
X155836389Y-89696236D01*
X155805500Y-89891263D01*
X155805500Y-90088736D01*
X155836389Y-90283763D01*
X155897408Y-90471558D01*
X155897409Y-90471561D01*
X155987056Y-90647501D01*
X155987058Y-90647504D01*
X156103115Y-90807246D01*
X156242753Y-90946884D01*
X156392234Y-91055486D01*
X156402499Y-91062944D01*
X156578439Y-91152591D01*
X156607610Y-91162069D01*
X156665286Y-91201507D01*
X156692484Y-91265865D01*
X156680569Y-91334712D01*
X156633325Y-91386187D01*
X156607611Y-91397930D01*
X156597326Y-91401271D01*
X156578441Y-91407408D01*
X156402495Y-91497058D01*
X156242753Y-91613115D01*
X156103115Y-91752753D01*
X155987058Y-91912495D01*
X155897408Y-92088441D01*
X155836389Y-92276236D01*
X155805500Y-92471263D01*
X155805500Y-92668736D01*
X155836389Y-92863763D01*
X155879332Y-92995925D01*
X155897409Y-93051561D01*
X155984757Y-93222989D01*
X155987058Y-93227504D01*
X156103115Y-93387246D01*
X156242753Y-93526884D01*
X156392234Y-93635486D01*
X156402499Y-93642944D01*
X156533151Y-93709515D01*
X156583947Y-93757490D01*
X156600742Y-93825311D01*
X156578204Y-93891446D01*
X156533151Y-93930484D01*
X156416017Y-93990167D01*
X156402495Y-93997058D01*
X156242753Y-94113115D01*
X156103115Y-94252753D01*
X155987058Y-94412495D01*
X155897408Y-94588441D01*
X155836389Y-94776236D01*
X155805500Y-94971263D01*
X155805500Y-95168736D01*
X155836389Y-95363763D01*
X155897408Y-95551558D01*
X155897409Y-95551561D01*
X155987056Y-95727501D01*
X155987058Y-95727504D01*
X156103115Y-95887246D01*
X156242753Y-96026884D01*
X156392234Y-96135486D01*
X156402499Y-96142944D01*
X156572404Y-96229516D01*
X156623199Y-96277490D01*
X156639994Y-96345311D01*
X156617456Y-96411446D01*
X156572404Y-96450483D01*
X156477042Y-96499074D01*
X156402495Y-96537058D01*
X156242753Y-96653115D01*
X156103115Y-96792753D01*
X155987058Y-96952495D01*
X155897408Y-97128441D01*
X155836389Y-97316236D01*
X155805500Y-97511263D01*
X155805500Y-97708736D01*
X155836389Y-97903763D01*
X155897408Y-98091558D01*
X155897409Y-98091561D01*
X155987056Y-98267501D01*
X155987058Y-98267504D01*
X156103115Y-98427246D01*
X156242753Y-98566884D01*
X156392234Y-98675486D01*
X156402499Y-98682944D01*
X156572404Y-98769516D01*
X156623199Y-98817490D01*
X156639994Y-98885311D01*
X156617456Y-98951446D01*
X156572404Y-98990483D01*
X156415321Y-99070522D01*
X156402495Y-99077058D01*
X156242753Y-99193115D01*
X156103115Y-99332753D01*
X155987058Y-99492495D01*
X155897408Y-99668441D01*
X155836389Y-99856236D01*
X155805500Y-100051263D01*
X155805500Y-100248736D01*
X155836389Y-100443763D01*
X155897408Y-100631558D01*
X155897409Y-100631561D01*
X155987056Y-100807501D01*
X155987058Y-100807504D01*
X156103115Y-100967246D01*
X156242753Y-101106884D01*
X156392234Y-101215486D01*
X156402499Y-101222944D01*
X156572404Y-101309516D01*
X156623199Y-101357490D01*
X156639994Y-101425311D01*
X156617456Y-101491446D01*
X156572404Y-101530483D01*
X156415321Y-101610522D01*
X156402495Y-101617058D01*
X156242753Y-101733115D01*
X156103115Y-101872753D01*
X155987058Y-102032495D01*
X155897408Y-102208441D01*
X155836389Y-102396236D01*
X155805500Y-102591263D01*
X155805500Y-102788736D01*
X155836389Y-102983763D01*
X155897408Y-103171558D01*
X155897409Y-103171561D01*
X155987056Y-103347501D01*
X155987058Y-103347504D01*
X156103115Y-103507246D01*
X156242753Y-103646884D01*
X156392234Y-103755486D01*
X156402499Y-103762944D01*
X156572404Y-103849516D01*
X156623199Y-103897490D01*
X156639994Y-103965311D01*
X156617456Y-104031446D01*
X156572404Y-104070483D01*
X156415321Y-104150522D01*
X156402495Y-104157058D01*
X156242753Y-104273115D01*
X156103115Y-104412753D01*
X155987058Y-104572495D01*
X155897408Y-104748441D01*
X155836389Y-104936236D01*
X155805500Y-105131263D01*
X155805500Y-105328736D01*
X155836389Y-105523763D01*
X155897408Y-105711558D01*
X155897409Y-105711561D01*
X155987056Y-105887501D01*
X155987058Y-105887504D01*
X156103115Y-106047246D01*
X156242753Y-106186884D01*
X156392234Y-106295486D01*
X156402499Y-106302944D01*
X156578439Y-106392591D01*
X156703637Y-106433270D01*
X156766236Y-106453610D01*
X156961264Y-106484500D01*
X156961269Y-106484500D01*
X157158736Y-106484500D01*
X157353763Y-106453610D01*
X157541561Y-106392591D01*
X157717501Y-106302944D01*
X157807192Y-106237779D01*
X157877246Y-106186884D01*
X157877248Y-106186881D01*
X157877252Y-106186879D01*
X158016879Y-106047252D01*
X158016881Y-106047248D01*
X158016884Y-106047246D01*
X158067779Y-105977192D01*
X158132944Y-105887501D01*
X158222591Y-105711561D01*
X158283610Y-105523763D01*
X158314500Y-105328736D01*
X158314500Y-105131263D01*
X158283610Y-104936236D01*
X158263270Y-104873637D01*
X158222591Y-104748439D01*
X158132944Y-104572499D01*
X158125486Y-104562234D01*
X158016884Y-104412753D01*
X157877246Y-104273115D01*
X157717505Y-104157058D01*
X157711119Y-104153804D01*
X157547593Y-104070482D01*
X157496800Y-104022510D01*
X157480005Y-103954689D01*
X157502542Y-103888554D01*
X157547593Y-103849517D01*
X157717501Y-103762944D01*
X157737912Y-103748114D01*
X157877246Y-103646884D01*
X157877248Y-103646881D01*
X157877252Y-103646879D01*
X158016879Y-103507252D01*
X158016881Y-103507248D01*
X158016884Y-103507246D01*
X158067779Y-103437192D01*
X158132944Y-103347501D01*
X158222591Y-103171561D01*
X158283610Y-102983763D01*
X158314500Y-102788736D01*
X158314500Y-102591263D01*
X158283610Y-102396236D01*
X158252503Y-102300500D01*
X158222591Y-102208439D01*
X158132944Y-102032499D01*
X158125486Y-102022234D01*
X158016884Y-101872753D01*
X157877246Y-101733115D01*
X157717505Y-101617058D01*
X157711119Y-101613804D01*
X157547593Y-101530482D01*
X157496800Y-101482510D01*
X157480005Y-101414689D01*
X157502542Y-101348554D01*
X157547593Y-101309517D01*
X157717501Y-101222944D01*
X157737912Y-101208114D01*
X157877246Y-101106884D01*
X157877248Y-101106881D01*
X157877252Y-101106879D01*
X158016879Y-100967252D01*
X158016881Y-100967248D01*
X158016884Y-100967246D01*
X158067779Y-100897192D01*
X158132944Y-100807501D01*
X158222591Y-100631561D01*
X158283610Y-100443763D01*
X158285539Y-100431585D01*
X158314500Y-100248736D01*
X158314500Y-100051263D01*
X158283610Y-99856236D01*
X158249562Y-99751447D01*
X158222591Y-99668439D01*
X158132944Y-99492499D01*
X158094877Y-99440104D01*
X158016884Y-99332753D01*
X157877246Y-99193115D01*
X157717505Y-99077058D01*
X157711119Y-99073804D01*
X157547593Y-98990482D01*
X157496800Y-98942510D01*
X157480005Y-98874689D01*
X157502542Y-98808554D01*
X157547593Y-98769517D01*
X157717501Y-98682944D01*
X157737912Y-98668114D01*
X157877246Y-98566884D01*
X157877248Y-98566881D01*
X157877252Y-98566879D01*
X158016879Y-98427252D01*
X158016881Y-98427248D01*
X158016884Y-98427246D01*
X158067779Y-98357192D01*
X158132944Y-98267501D01*
X158222591Y-98091561D01*
X158283610Y-97903763D01*
X158285539Y-97891585D01*
X158314500Y-97708736D01*
X158314500Y-97511263D01*
X158283610Y-97316236D01*
X158249562Y-97211447D01*
X158222591Y-97128439D01*
X158132944Y-96952499D01*
X158094877Y-96900104D01*
X158016884Y-96792753D01*
X157877246Y-96653115D01*
X157717505Y-96537058D01*
X157661451Y-96508497D01*
X157547593Y-96450482D01*
X157496800Y-96402510D01*
X157480005Y-96334689D01*
X157502542Y-96268554D01*
X157547593Y-96229517D01*
X157717501Y-96142944D01*
X157737912Y-96128114D01*
X157877246Y-96026884D01*
X157877248Y-96026881D01*
X157877252Y-96026879D01*
X158016879Y-95887252D01*
X158016881Y-95887248D01*
X158016884Y-95887246D01*
X158067779Y-95817192D01*
X158132944Y-95727501D01*
X158222591Y-95551561D01*
X158283610Y-95363763D01*
X158285539Y-95351585D01*
X158314500Y-95168736D01*
X158314500Y-94971263D01*
X158283610Y-94776236D01*
X158249562Y-94671447D01*
X158222591Y-94588439D01*
X158132944Y-94412499D01*
X158094877Y-94360104D01*
X158016884Y-94252753D01*
X157877246Y-94113115D01*
X157717505Y-93997058D01*
X157711830Y-93994166D01*
X157586846Y-93930483D01*
X157536052Y-93882510D01*
X157519257Y-93814689D01*
X157541794Y-93748554D01*
X157586845Y-93709517D01*
X157717501Y-93642944D01*
X157737912Y-93628114D01*
X157877246Y-93526884D01*
X157877248Y-93526881D01*
X157877252Y-93526879D01*
X158016879Y-93387252D01*
X158016881Y-93387248D01*
X158016884Y-93387246D01*
X158067779Y-93317192D01*
X158132944Y-93227501D01*
X158222591Y-93051561D01*
X158283610Y-92863763D01*
X158305906Y-92722993D01*
X158314500Y-92668736D01*
X158314500Y-92471263D01*
X158283610Y-92276236D01*
X158250700Y-92174951D01*
X158222591Y-92088439D01*
X158132944Y-91912499D01*
X158104069Y-91872755D01*
X158016884Y-91752753D01*
X157877246Y-91613115D01*
X157717504Y-91497058D01*
X157717503Y-91497057D01*
X157717501Y-91497056D01*
X157541561Y-91407409D01*
X157541555Y-91407407D01*
X157541557Y-91407407D01*
X157518631Y-91399958D01*
X157512389Y-91397930D01*
X157454714Y-91358494D01*
X157427515Y-91294136D01*
X157439429Y-91225289D01*
X157486673Y-91173813D01*
X157512388Y-91162069D01*
X157541561Y-91152591D01*
X157717501Y-91062944D01*
X157807192Y-90997779D01*
X157877246Y-90946884D01*
X157877248Y-90946881D01*
X157877252Y-90946879D01*
X158016879Y-90807252D01*
X158016881Y-90807248D01*
X158016884Y-90807246D01*
X158067779Y-90737192D01*
X158132944Y-90647501D01*
X158222591Y-90471561D01*
X158283610Y-90283763D01*
X158285539Y-90271585D01*
X158314500Y-90088736D01*
X158314500Y-89891263D01*
X158283610Y-89696236D01*
X158249562Y-89591447D01*
X158222591Y-89508439D01*
X158132944Y-89332499D01*
X158094877Y-89280104D01*
X158016884Y-89172753D01*
X157877246Y-89033115D01*
X157717505Y-88917058D01*
X157711119Y-88913804D01*
X157547593Y-88830482D01*
X157496800Y-88782510D01*
X157480005Y-88714689D01*
X157502542Y-88648554D01*
X157547593Y-88609517D01*
X157717501Y-88522944D01*
X157737912Y-88508114D01*
X157877246Y-88406884D01*
X157877248Y-88406881D01*
X157877252Y-88406879D01*
X158016879Y-88267252D01*
X158016881Y-88267248D01*
X158016884Y-88267246D01*
X158067779Y-88197192D01*
X158132944Y-88107501D01*
X158222591Y-87931561D01*
X158283610Y-87743763D01*
X158285539Y-87731585D01*
X158314500Y-87548736D01*
X158314500Y-87351263D01*
X158283610Y-87156236D01*
X158246567Y-87042230D01*
X158222591Y-86968439D01*
X158132944Y-86792499D01*
X158125486Y-86782234D01*
X158016884Y-86632753D01*
X157877252Y-86493121D01*
X157877244Y-86493115D01*
X157733687Y-86388816D01*
X157691023Y-86333488D01*
X157685044Y-86263875D01*
X157717649Y-86202079D01*
X157778488Y-86167722D01*
X157806573Y-86164499D01*
X157861872Y-86164499D01*
X157921483Y-86158091D01*
X158056331Y-86107796D01*
X158171546Y-86021546D01*
X158257796Y-85906331D01*
X158308091Y-85771483D01*
X158314500Y-85711873D01*
X158314499Y-85283094D01*
X158334183Y-85216057D01*
X158386987Y-85170302D01*
X158456146Y-85160358D01*
X158519702Y-85189383D01*
X158526180Y-85195415D01*
X170609181Y-97278416D01*
X170642666Y-97339739D01*
X170645500Y-97366097D01*
X170645500Y-101549330D01*
X170645499Y-101549348D01*
X170645499Y-101715054D01*
X170645498Y-101715054D01*
X170645499Y-101715057D01*
X170686423Y-101867785D01*
X170711980Y-101912051D01*
X170765477Y-102004712D01*
X170765481Y-102004717D01*
X170884349Y-102123585D01*
X170884355Y-102123590D01*
X171042892Y-102282127D01*
X171076377Y-102343450D01*
X171075873Y-102391222D01*
X171077152Y-102391425D01*
X171045500Y-102591263D01*
X171045500Y-102788736D01*
X171076389Y-102983763D01*
X171137408Y-103171558D01*
X171137409Y-103171561D01*
X171227056Y-103347501D01*
X171227058Y-103347504D01*
X171343115Y-103507246D01*
X171482753Y-103646884D01*
X171632234Y-103755486D01*
X171642499Y-103762944D01*
X171812404Y-103849516D01*
X171863199Y-103897490D01*
X171879994Y-103965311D01*
X171857456Y-104031446D01*
X171812404Y-104070483D01*
X171655321Y-104150522D01*
X171642495Y-104157058D01*
X171482753Y-104273115D01*
X171343115Y-104412753D01*
X171227058Y-104572495D01*
X171137408Y-104748441D01*
X171076389Y-104936236D01*
X171045500Y-105131263D01*
X171045500Y-105328736D01*
X171076389Y-105523763D01*
X171137408Y-105711558D01*
X171137409Y-105711561D01*
X171227056Y-105887501D01*
X171227058Y-105887504D01*
X171343115Y-106047246D01*
X171482753Y-106186884D01*
X171632234Y-106295486D01*
X171642499Y-106302944D01*
X171818439Y-106392591D01*
X171943637Y-106433270D01*
X172006236Y-106453610D01*
X172201264Y-106484500D01*
X172201269Y-106484500D01*
X172398736Y-106484500D01*
X172593763Y-106453610D01*
X172781561Y-106392591D01*
X172957501Y-106302944D01*
X173047192Y-106237779D01*
X173117246Y-106186884D01*
X173117248Y-106186881D01*
X173117252Y-106186879D01*
X173256879Y-106047252D01*
X173256881Y-106047248D01*
X173256884Y-106047246D01*
X173307779Y-105977192D01*
X173372944Y-105887501D01*
X173462591Y-105711561D01*
X173523610Y-105523763D01*
X173554500Y-105328736D01*
X173554500Y-105131263D01*
X173523610Y-104936236D01*
X173503270Y-104873637D01*
X173462591Y-104748439D01*
X173372944Y-104572499D01*
X173365486Y-104562234D01*
X173256884Y-104412753D01*
X173117246Y-104273115D01*
X172957505Y-104157058D01*
X172951119Y-104153804D01*
X172787593Y-104070482D01*
X172736800Y-104022510D01*
X172720005Y-103954689D01*
X172742542Y-103888554D01*
X172787593Y-103849517D01*
X172957501Y-103762944D01*
X172977912Y-103748114D01*
X173117246Y-103646884D01*
X173117248Y-103646881D01*
X173117252Y-103646879D01*
X173256879Y-103507252D01*
X173256881Y-103507248D01*
X173256884Y-103507246D01*
X173307779Y-103437192D01*
X173372944Y-103347501D01*
X173462591Y-103171561D01*
X173523610Y-102983763D01*
X173554500Y-102788736D01*
X173554500Y-102591263D01*
X173523610Y-102396236D01*
X173492503Y-102300500D01*
X173462591Y-102208439D01*
X173372944Y-102032499D01*
X173365486Y-102022234D01*
X173256884Y-101872753D01*
X173117246Y-101733115D01*
X172957505Y-101617058D01*
X172951119Y-101613804D01*
X172787593Y-101530482D01*
X172736800Y-101482510D01*
X172720005Y-101414689D01*
X172742542Y-101348554D01*
X172787593Y-101309517D01*
X172957501Y-101222944D01*
X172977912Y-101208114D01*
X173117246Y-101106884D01*
X173117248Y-101106881D01*
X173117252Y-101106879D01*
X173256879Y-100967252D01*
X173256881Y-100967248D01*
X173256884Y-100967246D01*
X173307779Y-100897192D01*
X173372944Y-100807501D01*
X173462591Y-100631561D01*
X173523610Y-100443763D01*
X173525539Y-100431585D01*
X173554500Y-100248736D01*
X173554500Y-100051263D01*
X173523610Y-99856236D01*
X173489562Y-99751447D01*
X173462591Y-99668439D01*
X173372944Y-99492499D01*
X173334877Y-99440104D01*
X173256884Y-99332753D01*
X173117246Y-99193115D01*
X172957505Y-99077058D01*
X172951119Y-99073804D01*
X172787593Y-98990482D01*
X172736800Y-98942510D01*
X172720005Y-98874689D01*
X172742542Y-98808554D01*
X172787593Y-98769517D01*
X172957501Y-98682944D01*
X172977912Y-98668114D01*
X173117246Y-98566884D01*
X173117248Y-98566881D01*
X173117252Y-98566879D01*
X173256879Y-98427252D01*
X173256881Y-98427248D01*
X173256884Y-98427246D01*
X173307779Y-98357192D01*
X173372944Y-98267501D01*
X173462591Y-98091561D01*
X173523610Y-97903763D01*
X173525539Y-97891585D01*
X173554500Y-97708736D01*
X173554500Y-97511263D01*
X173523610Y-97316236D01*
X173489562Y-97211447D01*
X173462591Y-97128439D01*
X173372944Y-96952499D01*
X173334877Y-96900104D01*
X173256884Y-96792753D01*
X173117246Y-96653115D01*
X172957505Y-96537058D01*
X172901451Y-96508497D01*
X172787593Y-96450482D01*
X172736800Y-96402510D01*
X172720005Y-96334689D01*
X172742542Y-96268554D01*
X172787593Y-96229517D01*
X172957501Y-96142944D01*
X172977912Y-96128114D01*
X173117246Y-96026884D01*
X173117248Y-96026881D01*
X173117252Y-96026879D01*
X173256879Y-95887252D01*
X173256881Y-95887248D01*
X173256884Y-95887246D01*
X173307779Y-95817192D01*
X173372944Y-95727501D01*
X173462591Y-95551561D01*
X173523610Y-95363763D01*
X173525539Y-95351585D01*
X173554500Y-95168736D01*
X173554500Y-94971263D01*
X173523610Y-94776236D01*
X173489562Y-94671447D01*
X173462591Y-94588439D01*
X173372944Y-94412499D01*
X173334877Y-94360104D01*
X173256884Y-94252753D01*
X173117246Y-94113115D01*
X172957505Y-93997058D01*
X172952334Y-93994423D01*
X172787043Y-93910202D01*
X172736250Y-93862230D01*
X172719455Y-93794409D01*
X172741992Y-93728275D01*
X172787046Y-93689235D01*
X172957241Y-93602516D01*
X172992988Y-93576543D01*
X172992988Y-93576541D01*
X172429410Y-93012962D01*
X172492993Y-92995925D01*
X172607007Y-92930099D01*
X172700099Y-92837007D01*
X172765925Y-92722993D01*
X172782962Y-92659409D01*
X173346541Y-93222988D01*
X173346543Y-93222988D01*
X173372516Y-93187241D01*
X173462126Y-93011373D01*
X173523123Y-92823646D01*
X173554000Y-92628697D01*
X173554000Y-92431302D01*
X173523123Y-92236353D01*
X173462126Y-92048626D01*
X173372520Y-91872768D01*
X173372512Y-91872755D01*
X173346542Y-91837010D01*
X173346541Y-91837009D01*
X172782962Y-92400589D01*
X172765925Y-92337007D01*
X172700099Y-92222993D01*
X172607007Y-92129901D01*
X172492993Y-92064075D01*
X172429409Y-92047037D01*
X172992989Y-91483457D01*
X172957236Y-91457481D01*
X172787045Y-91370763D01*
X172736250Y-91322789D01*
X172719455Y-91254968D01*
X172741993Y-91188833D01*
X172787042Y-91149798D01*
X172957501Y-91062944D01*
X173005283Y-91028228D01*
X173117246Y-90946884D01*
X173117248Y-90946881D01*
X173117252Y-90946879D01*
X173256879Y-90807252D01*
X173256881Y-90807248D01*
X173256884Y-90807246D01*
X173307779Y-90737192D01*
X173372944Y-90647501D01*
X173462591Y-90471561D01*
X173523610Y-90283763D01*
X173525539Y-90271585D01*
X173554500Y-90088736D01*
X173554500Y-89891263D01*
X173523610Y-89696236D01*
X173489562Y-89591447D01*
X173462591Y-89508439D01*
X173372944Y-89332499D01*
X173334877Y-89280104D01*
X173256884Y-89172753D01*
X173117246Y-89033115D01*
X172957505Y-88917058D01*
X172951119Y-88913804D01*
X172787593Y-88830482D01*
X172736800Y-88782510D01*
X172720005Y-88714689D01*
X172742542Y-88648554D01*
X172787593Y-88609517D01*
X172957501Y-88522944D01*
X172977912Y-88508114D01*
X173117246Y-88406884D01*
X173117248Y-88406881D01*
X173117252Y-88406879D01*
X173256879Y-88267252D01*
X173256881Y-88267248D01*
X173256884Y-88267246D01*
X173307779Y-88197192D01*
X173372944Y-88107501D01*
X173462591Y-87931561D01*
X173523610Y-87743763D01*
X173525539Y-87731585D01*
X173554500Y-87548736D01*
X173554500Y-87351263D01*
X173523610Y-87156236D01*
X173486567Y-87042230D01*
X173462591Y-86968439D01*
X173372944Y-86792499D01*
X173365486Y-86782234D01*
X173256884Y-86632753D01*
X173117246Y-86493115D01*
X172957505Y-86377058D01*
X172943064Y-86369700D01*
X172787593Y-86290482D01*
X172736800Y-86242510D01*
X172720005Y-86174689D01*
X172742542Y-86108554D01*
X172787593Y-86069517D01*
X172957501Y-85982944D01*
X172977912Y-85968114D01*
X173117246Y-85866884D01*
X173117248Y-85866881D01*
X173117252Y-85866879D01*
X173256879Y-85727252D01*
X173256881Y-85727248D01*
X173256884Y-85727246D01*
X173317238Y-85644174D01*
X173372944Y-85567501D01*
X173462591Y-85391561D01*
X173523610Y-85203763D01*
X173530485Y-85160358D01*
X173554500Y-85008736D01*
X173554500Y-84811263D01*
X173523610Y-84616236D01*
X173492503Y-84520499D01*
X173462591Y-84428439D01*
X173372944Y-84252499D01*
X173365486Y-84242234D01*
X173256884Y-84092753D01*
X173117246Y-83953115D01*
X172957504Y-83837058D01*
X172957503Y-83837057D01*
X172957501Y-83837056D01*
X172781561Y-83747409D01*
X172781558Y-83747408D01*
X172593763Y-83686389D01*
X172398736Y-83655500D01*
X172398731Y-83655500D01*
X172201269Y-83655500D01*
X172201264Y-83655500D01*
X172006236Y-83686389D01*
X171818441Y-83747408D01*
X171642495Y-83837058D01*
X171482753Y-83953115D01*
X171343115Y-84092753D01*
X171227058Y-84252495D01*
X171137408Y-84428441D01*
X171076389Y-84616236D01*
X171045500Y-84811263D01*
X171045500Y-85008736D01*
X171076389Y-85203763D01*
X171110876Y-85309901D01*
X171137409Y-85391561D01*
X171138587Y-85393872D01*
X171227058Y-85567504D01*
X171343115Y-85727246D01*
X171482753Y-85866884D01*
X171632234Y-85975486D01*
X171642499Y-85982944D01*
X171812404Y-86069516D01*
X171863199Y-86117490D01*
X171879994Y-86185311D01*
X171857456Y-86251446D01*
X171812404Y-86290483D01*
X171728005Y-86333488D01*
X171642495Y-86377058D01*
X171482753Y-86493115D01*
X171343115Y-86632753D01*
X171227058Y-86792495D01*
X171137408Y-86968441D01*
X171076389Y-87156236D01*
X171045500Y-87351263D01*
X171045500Y-87548736D01*
X171076389Y-87743763D01*
X171137408Y-87931558D01*
X171137409Y-87931561D01*
X171227056Y-88107501D01*
X171227058Y-88107504D01*
X171343115Y-88267246D01*
X171482753Y-88406884D01*
X171632234Y-88515486D01*
X171642499Y-88522944D01*
X171812404Y-88609516D01*
X171863199Y-88657490D01*
X171879994Y-88725311D01*
X171857456Y-88791446D01*
X171812404Y-88830483D01*
X171655321Y-88910522D01*
X171642495Y-88917058D01*
X171482753Y-89033115D01*
X171343115Y-89172753D01*
X171227058Y-89332495D01*
X171137408Y-89508441D01*
X171076389Y-89696236D01*
X171045500Y-89891263D01*
X171045500Y-90088736D01*
X171076389Y-90283763D01*
X171137408Y-90471558D01*
X171137409Y-90471561D01*
X171227056Y-90647501D01*
X171227058Y-90647504D01*
X171343115Y-90807246D01*
X171482753Y-90946884D01*
X171642494Y-91062941D01*
X171642496Y-91062942D01*
X171642499Y-91062944D01*
X171812956Y-91149797D01*
X171863749Y-91197768D01*
X171880544Y-91265589D01*
X171858007Y-91331724D01*
X171812954Y-91370763D01*
X171642767Y-91457479D01*
X171642760Y-91457483D01*
X171607010Y-91483456D01*
X171607010Y-91483457D01*
X172170591Y-92047037D01*
X172107007Y-92064075D01*
X171992993Y-92129901D01*
X171899901Y-92222993D01*
X171834075Y-92337007D01*
X171817037Y-92400590D01*
X171253457Y-91837010D01*
X171253456Y-91837010D01*
X171227483Y-91872760D01*
X171227482Y-91872762D01*
X171137873Y-92048626D01*
X171076876Y-92236353D01*
X171046000Y-92431302D01*
X171046000Y-92628697D01*
X171076876Y-92823646D01*
X171137873Y-93011373D01*
X171227483Y-93187239D01*
X171253457Y-93222988D01*
X171253457Y-93222989D01*
X171817037Y-92659408D01*
X171834075Y-92722993D01*
X171899901Y-92837007D01*
X171992993Y-92930099D01*
X172107007Y-92995925D01*
X172170590Y-93012962D01*
X171607009Y-93576541D01*
X171607010Y-93576542D01*
X171642755Y-93602512D01*
X171642768Y-93602520D01*
X171812953Y-93689235D01*
X171863749Y-93737210D01*
X171880544Y-93805031D01*
X171858006Y-93871166D01*
X171812954Y-93910203D01*
X171651189Y-93992627D01*
X171642495Y-93997058D01*
X171482753Y-94113115D01*
X171343115Y-94252753D01*
X171227058Y-94412495D01*
X171137408Y-94588441D01*
X171076389Y-94776236D01*
X171045500Y-94971263D01*
X171045500Y-95168736D01*
X171076389Y-95363763D01*
X171137408Y-95551558D01*
X171137409Y-95551561D01*
X171227056Y-95727501D01*
X171227058Y-95727504D01*
X171343115Y-95887246D01*
X171482753Y-96026884D01*
X171632234Y-96135486D01*
X171642499Y-96142944D01*
X171812404Y-96229516D01*
X171863199Y-96277490D01*
X171879994Y-96345311D01*
X171857456Y-96411446D01*
X171812402Y-96450485D01*
X171672284Y-96521878D01*
X171603615Y-96534774D01*
X171538875Y-96508497D01*
X171528309Y-96499074D01*
X147997590Y-72968355D01*
X147997588Y-72968352D01*
X147878717Y-72849481D01*
X147878716Y-72849480D01*
X147791904Y-72799360D01*
X147791904Y-72799359D01*
X147791900Y-72799358D01*
X147741785Y-72770423D01*
X147589057Y-72729499D01*
X147430943Y-72729499D01*
X147423347Y-72729499D01*
X147423331Y-72729500D01*
X147319766Y-72729500D01*
X147252727Y-72709815D01*
X147250875Y-72708602D01*
X147119185Y-72620609D01*
X147119172Y-72620602D01*
X146973501Y-72560264D01*
X146973489Y-72560261D01*
X146818845Y-72529500D01*
X146818842Y-72529500D01*
X146661158Y-72529500D01*
X146661155Y-72529500D01*
X146506510Y-72560261D01*
X146506498Y-72560264D01*
X146360827Y-72620602D01*
X146360814Y-72620609D01*
X146229711Y-72708210D01*
X146229707Y-72708213D01*
X146118213Y-72819707D01*
X146118210Y-72819711D01*
X146030609Y-72950814D01*
X146030602Y-72950827D01*
X145970264Y-73096498D01*
X145970261Y-73096510D01*
X145939500Y-73251153D01*
X145939500Y-73408846D01*
X145970261Y-73563489D01*
X145970264Y-73563501D01*
X146030602Y-73709172D01*
X146030609Y-73709185D01*
X146118210Y-73840288D01*
X146118213Y-73840292D01*
X146229707Y-73951786D01*
X146229711Y-73951789D01*
X146360814Y-74039390D01*
X146360827Y-74039397D01*
X146506498Y-74099735D01*
X146506503Y-74099737D01*
X146661153Y-74130499D01*
X146661156Y-74130500D01*
X146661158Y-74130500D01*
X146818844Y-74130500D01*
X146818845Y-74130499D01*
X146973497Y-74099737D01*
X147119179Y-74039394D01*
X147185017Y-73995401D01*
X147251692Y-73974524D01*
X147319072Y-73993007D01*
X147341588Y-74010823D01*
X147748584Y-74417819D01*
X147782069Y-74479142D01*
X147777085Y-74548834D01*
X147735213Y-74604767D01*
X147669749Y-74629184D01*
X147660903Y-74629500D01*
X144892129Y-74629500D01*
X144892123Y-74629501D01*
X144832516Y-74635908D01*
X144697671Y-74686202D01*
X144697664Y-74686206D01*
X144582455Y-74772452D01*
X144582452Y-74772455D01*
X144496206Y-74887664D01*
X144496202Y-74887671D01*
X144445908Y-75022517D01*
X144439501Y-75082116D01*
X144439500Y-75082135D01*
X137260497Y-75082135D01*
X137260499Y-66982135D01*
X137539500Y-66982135D01*
X137539500Y-69077870D01*
X137539501Y-69077876D01*
X137545908Y-69137483D01*
X137596202Y-69272328D01*
X137596206Y-69272335D01*
X137682452Y-69387544D01*
X137682453Y-69387544D01*
X137682454Y-69387546D01*
X137686829Y-69390821D01*
X137800599Y-69475990D01*
X137842469Y-69531924D01*
X137847453Y-69601615D01*
X137826605Y-69648141D01*
X137757087Y-69743824D01*
X137649897Y-69954197D01*
X137576934Y-70178752D01*
X137540000Y-70411947D01*
X137540000Y-70648052D01*
X137576934Y-70881247D01*
X137649897Y-71105802D01*
X137757087Y-71316174D01*
X137817338Y-71399104D01*
X137817340Y-71399105D01*
X138557037Y-70659408D01*
X138574075Y-70722993D01*
X138639901Y-70837007D01*
X138732993Y-70930099D01*
X138847007Y-70995925D01*
X138910590Y-71012962D01*
X138164280Y-71759271D01*
X138155105Y-71802947D01*
X138118739Y-71844615D01*
X138062490Y-71885482D01*
X137895485Y-72052487D01*
X137895485Y-72052488D01*
X137895483Y-72052490D01*
X137835862Y-72134550D01*
X137756657Y-72243566D01*
X137649433Y-72454003D01*
X137576446Y-72678631D01*
X137539500Y-72911902D01*
X137539500Y-73148097D01*
X137576446Y-73381368D01*
X137649433Y-73605996D01*
X137702008Y-73709179D01*
X137756657Y-73816433D01*
X137895483Y-74007510D01*
X138062490Y-74174517D01*
X138253567Y-74313343D01*
X138352991Y-74364002D01*
X138464003Y-74420566D01*
X138464005Y-74420566D01*
X138464008Y-74420568D01*
X138584412Y-74459689D01*
X138688631Y-74493553D01*
X138921903Y-74530500D01*
X138921908Y-74530500D01*
X139158097Y-74530500D01*
X139391368Y-74493553D01*
X139435720Y-74479142D01*
X139615992Y-74420568D01*
X139826433Y-74313343D01*
X140017510Y-74174517D01*
X140184517Y-74007510D01*
X140323343Y-73816433D01*
X140430568Y-73605992D01*
X140503553Y-73381368D01*
X140509952Y-73340965D01*
X140540500Y-73148097D01*
X140540500Y-72911902D01*
X140503553Y-72678631D01*
X140430566Y-72454003D01*
X140323342Y-72243566D01*
X140184517Y-72052490D01*
X140017510Y-71885483D01*
X139961259Y-71844614D01*
X139918595Y-71789284D01*
X139913902Y-71757455D01*
X139169408Y-71012962D01*
X139232993Y-70995925D01*
X139347007Y-70930099D01*
X139440099Y-70837007D01*
X139505925Y-70722993D01*
X139522962Y-70659409D01*
X140262658Y-71399105D01*
X140262658Y-71399104D01*
X140322914Y-71316169D01*
X140322918Y-71316163D01*
X140430102Y-71105802D01*
X140503065Y-70881247D01*
X140540000Y-70648052D01*
X140540000Y-70494500D01*
X140559685Y-70427461D01*
X140612489Y-70381706D01*
X140664000Y-70370500D01*
X142600234Y-70370500D01*
X142667273Y-70390185D01*
X142669125Y-70391398D01*
X142800814Y-70479390D01*
X142800827Y-70479397D01*
X142922993Y-70529999D01*
X142946503Y-70539737D01*
X143101153Y-70570499D01*
X143101156Y-70570500D01*
X143101158Y-70570500D01*
X143258844Y-70570500D01*
X143258845Y-70570499D01*
X143413497Y-70539737D01*
X143559179Y-70479394D01*
X143690289Y-70391789D01*
X143801789Y-70280289D01*
X143889394Y-70149179D01*
X143949737Y-70003497D01*
X143980500Y-69848842D01*
X143980500Y-69691158D01*
X143980500Y-69691155D01*
X143980499Y-69691153D01*
X143971943Y-69648141D01*
X143949737Y-69536503D01*
X143947840Y-69531924D01*
X143889397Y-69390827D01*
X143889390Y-69390814D01*
X143801789Y-69259711D01*
X143801786Y-69259707D01*
X143690292Y-69148213D01*
X143690288Y-69148210D01*
X143559185Y-69060609D01*
X143559172Y-69060602D01*
X143413501Y-69000264D01*
X143413489Y-69000261D01*
X143258845Y-68969500D01*
X143258842Y-68969500D01*
X143101158Y-68969500D01*
X143101155Y-68969500D01*
X142946510Y-69000261D01*
X142946498Y-69000264D01*
X142800827Y-69060602D01*
X142800814Y-69060609D01*
X142669125Y-69148602D01*
X142602447Y-69169480D01*
X142600234Y-69169500D01*
X140850097Y-69169500D01*
X140783058Y-69149815D01*
X140762416Y-69133181D01*
X140576818Y-68947583D01*
X140543333Y-68886260D01*
X140540499Y-68859902D01*
X140540499Y-66982129D01*
X140540498Y-66982123D01*
X140540497Y-66982116D01*
X140534091Y-66922517D01*
X140520278Y-66885483D01*
X140483797Y-66787671D01*
X140483793Y-66787664D01*
X140397547Y-66672455D01*
X140397544Y-66672452D01*
X140282335Y-66586206D01*
X140282328Y-66586202D01*
X140147482Y-66535908D01*
X140147483Y-66535908D01*
X140087883Y-66529501D01*
X140087881Y-66529500D01*
X140087873Y-66529500D01*
X140087864Y-66529500D01*
X137992129Y-66529500D01*
X137992123Y-66529501D01*
X137932516Y-66535908D01*
X137797671Y-66586202D01*
X137797664Y-66586206D01*
X137682455Y-66672452D01*
X137682452Y-66672455D01*
X137596206Y-66787664D01*
X137596202Y-66787671D01*
X137545908Y-66922517D01*
X137539857Y-66978806D01*
X137539501Y-66982123D01*
X137539500Y-66982135D01*
X137260499Y-66982135D01*
X137260500Y-63374500D01*
X137280185Y-63307461D01*
X137332989Y-63261706D01*
X137384500Y-63250500D01*
X144643501Y-63250500D01*
X144710540Y-63270185D01*
G37*
%TD.AperFunction*%
%TD*%
M02*
